<?xml version="1.0" encoding="utf-8"?>
<!-- Generator: Adobe Illustrator 15.0.0, SVG Export Plug-In . SVG Version: 6.00 Build 0)  -->
<!DOCTYPE svg PUBLIC "-//W3C//DTD SVG 1.1//EN" "http://www.w3.org/Graphics/SVG/1.1/DTD/svg11.dtd">
<svg version="1.1" id="Layer_1" xmlns="http://www.w3.org/2000/svg" xmlns:xlink="http://www.w3.org/1999/xlink" x="0px" y="0px"
	 width="167px" height="63px" viewBox="0 0 167 63" enable-background="new 0 0 167 63" xml:space="preserve">
<g>
	<rect width="167" height="63"/>
	<g>
		<path fill="#FFFFFF" d="M45.909,23.236c-0.136-1.694-0.249-3.659-0.316-5.488l4.381,0.158c0,0.587,0,0.858,0.022,1.445
			l3.275-1.581l2.891,4.268l-2.168,1.197l2.168,0.022v4.471h-2.62c0.723,0.52,1.513,1.355,2.123,1.897
			c-0.926,1.265-2.575,2.823-3.659,3.794c0.113,0.316,0.227,0.655,0.497,0.903c0.249,0.09,0.723-0.248,0.972-0.587l1.265-1.716
			l1.761,4.064c-0.723,0.971-1.58,1.784-2.529,2.303c-1.129,0.61-2.483,0.769-3.478,0.046c-0.926-0.655-1.445-1.671-1.762-2.235
			c-0.971,0.744-2.394,1.467-3.522,2.032l-1.965-3.207l-0.022,1.762c-0.022,1.174-1.151,2.055-2.484,2.055H36.83l-0.902-4.155h2.483
			c0.52,0,0.452-0.158,0.564-0.496v-1.062l-3.342,0.385l-0.406-4.313l3.748-0.271V27.73H35.34v-4.471h3.771l0.022-0.542
			c-1.016,0.135-2.1,0.067-3.229,0.113l-0.632-4.133c3.207-0.181,6.481-0.452,9.304-1.016l1.017,4.2
			c-0.768,0.249-1.378,0.294-2.349,0.52v0.858L45.909,23.236z M47.083,32.292c-0.451-1.513-0.723-3.026-0.858-4.584l-2.98,0.022
			v0.813l2.665-0.203v3.997l-2.665,0.475v1.31C44.576,33.67,45.841,33.06,47.083,32.292z M49.929,20.052l0.113,3.207l1.919-0.022
			L49.929,20.052z M50.674,29.288c0.406-0.451,1.514-1.332,1.693-1.581l-1.964,0.022l0.067,0.678
			C50.516,28.633,50.629,29.085,50.674,29.288z"/>
		<path fill="#FFFFFF" d="M72.83,21.407v0.723h4.787v6.414h-7.498l-0.79,0.587h9.711v3.162h-3.501
			c-0.338,0.52-0.723,1.062-1.129,1.626l4.788,1.174l-2.732,3.613l-5.511-1.829c-2.891,1.22-6.165,1.829-9.823,1.829l-2.371-3.025
			c2.1-0.045,4.087-0.203,5.984-0.452l-4.494-1.106l2.101-1.829H58.15V29.13h6.707l0.7-0.587h-6.097v-6.414h4.81v-0.723h-5.69
			v-3.613h20.144v3.613H72.83z M64.271,25.02h-0.993v0.655h0.993V25.02z M69.804,33.105c0.384-0.294,0.654-0.565,0.835-0.813H67.41
			l-0.271,0.248L69.804,33.105z M69.013,21.407h-0.88v0.723h0.88V21.407z M69.013,25.02h-0.88v0.655h0.88V25.02z M73.823,25.02
			H72.83v0.655h0.993V25.02z"/>
		<path fill="#FFFFFF" d="M96.229,21.068c0.135,0.135,0.316,0.248,0.542,0.316c0.654-0.61,1.242-1.333,1.761-2.146l2.914,1.558
			c-0.385,0.7-0.813,1.31-1.287,1.83c0.587,0.181,1.174,0.271,1.761,0.271l-1.242,3.658l0.994,0.452
			c-0.022,1.445-0.497,2.349-1.4,2.71l-0.022,2.869c-0.451,0.881-0.994,1.648-1.581,2.28c0.972,0.226,2.078,0.384,3.32,0.475
			l-1.423,3.591c-1.92-0.227-3.749-0.678-5.465-1.355c-1.491,0.609-2.959,1.039-4.382,1.311l-0.948-1.311
			c-0.7,0.791-1.942,1.378-3.703,1.355l-3.207-0.045l-1.084-3.546l3.545-0.022c0.452-0.091,0.678-0.385,0.678-0.904h-4.811
			l0.904-6.345h4.381v-0.384h-3.388l-1.106,0.249l-0.994-4.11c0.7,0,1.423-0.181,2.168-0.52l-2.055-1.784l1.942-1.648v-2.213h9.236
			c0.384,0.52,0.835,1.016,1.354,1.49c0.655-0.293,1.22-0.79,1.648-1.49l2.778,1.377C97.583,19.781,96.974,20.458,96.229,21.068z
			 M85.908,30.824v0.384h4.312v3.997c0.7,0,1.22-0.045,1.559-0.136c-0.542-0.745-0.926-1.354-1.129-1.829l1.197-0.723h-0.949v-2.416
			l-0.406-0.316v1.039H85.908z M87.624,20.955h-1.445l0.7,0.452C87.195,21.294,87.443,21.136,87.624,20.955z M90.56,27.572
			c0.294-0.655,0.43-1.739,0.407-3.275h2.552c-0.791-0.474-1.514-1.016-2.19-1.626c-0.588,0.655-1.242,1.197-1.987,1.626h1.219
			V27.572z M94.512,27.662h-0.564c-0.045,0.565-0.136,1.017-0.271,1.355h0.835V27.662z M95.37,33.33
			c0.339-0.248,0.587-0.519,0.768-0.835h-1.852C94.512,32.856,94.873,33.127,95.37,33.33z M98.374,26.285
			c-0.316-0.09-0.565-0.158-0.769-0.203v1.581h0.294C98.216,27.617,98.374,27.166,98.374,26.285z"/>
		<path fill="#FFFFFF" d="M114.273,26.127c0.497,0.09,0.972,0.045,1.423-0.136c-0.339-0.181-0.677-0.474-0.993-0.903
			c0.293-0.136,0.542-0.316,0.745-0.542h-0.564V22.92c-0.249-0.226-0.475-0.452-0.7-0.655v0.384h-9.801v-1.423h3.094v-0.474h-3.252
			v-2.213h3.252v-0.926h4.155v0.926h3.071v2.213h-3.071v0.474l2.619-0.022c0.475-0.293,0.791-0.768,0.972-1.445v-2.01h6.594v2.665
			h0.52l0.113-0.135v-2.033l2.28,0.745v2.236c-0.203,0.429-0.451,0.723-0.768,0.903l0.022,2.281
			c-0.429,0.587-0.903,1.017-1.423,1.333l2.236,0.113l-1.106,2.688h1.106v2.552h-3.049v3.613l3.049-0.203l-0.068,2.755l-2.913,0.182
			v1.399h-4.268v-1.129l-13.324,0.655v-2.959l2.664-0.067v-4.178l-0.926,1.377l-2.19-3.207c0.497-1.016,0.745-2.123,0.745-3.342
			v-2.936h9.779L114.273,26.127z M113.303,27.888h-5.42v0.135l-0.226,0.52h6.278L113.303,27.888z M108.719,24.93h-0.903v0.61h0.903
			V24.93z M111.947,24.93h-0.926v0.61h0.926V24.93z M117.436,31.095h-6.414v0.542h6.414V31.095z M117.436,32.676h-6.391v0.52h6.391
			V32.676z M117.549,34.641h-6.504v0.587l6.504-0.203V34.641z M116.441,28.543h4.855l-2.349-0.768
			C118.136,28.001,117.3,28.25,116.441,28.543z M118.723,21.226h-0.745c-0.091,0.339-0.226,0.632-0.406,0.903h1.58L118.723,21.226z
			 M118.903,25.156c0.429-0.181,0.745-0.384,0.971-0.61h-1.964C118.181,24.771,118.52,24.952,118.903,25.156z"/>
		<path fill="#FFFFFF" d="M131.665,32.766l-1.039-13.03h5.284l-0.903,13.03H131.665z M131.078,33.512h4.403v3.59h-4.403V33.512z"/>
	</g>
	<line fill="none" stroke="#FFFFFF" stroke-width="5" stroke-miterlimit="10" x1="35" y1="47.5" x2="136" y2="47.5"/>
</g>
</svg>
