<?xml version="1.0" encoding="utf-8"?>
<!-- Generator: Adobe Illustrator 16.0.0, SVG Export Plug-In . SVG Version: 6.00 Build 0)  -->
<!DOCTYPE svg PUBLIC "-//W3C//DTD SVG 1.1//EN" "http://www.w3.org/Graphics/SVG/1.1/DTD/svg11.dtd">
<svg version="1.1" id="Layer_1" xmlns="http://www.w3.org/2000/svg" xmlns:xlink="http://www.w3.org/1999/xlink" x="0px" y="0px"
	 width="91px" height="36.405px" viewBox="120 -56 91 36.405" enable-background="new 120 -56 91 36.405" xml:space="preserve">
<g>
	<g>
		<path fill="#020202" d="M129.629-34.199c-3.794-0.678-5.646-3.207-5.283-6.934h4.539c-0.023,2.077,0.112,2.801,2.303,3.14
			c0.881,0.158,1.854,0.135,2.619-0.113c0.633-0.181,0.926-0.562,0.903-0.948c0-0.359-0.293-0.768-0.993-1.084
			c-1.311-0.562-4.494-1.626-6.277-2.258c-1.986-0.7-2.846-2.28-2.756-4.291c0.045-1.671,1.129-3.207,2.711-3.929
			c2.076-0.926,4.854-1.242,7.203-0.587c1.56,0.429,3.094,1.354,3.861,2.8c0.52,0.971,0.723,2.078,0.768,3.388h-4.697
			c-0.11-1.489-0.359-2.574-2.121-2.776c-0.857-0.113-1.854,0.045-2.553,0.314c-1.287,0.477-0.451,1.423,0.451,1.649
			c1.561,0.405,3.592,1.174,4.924,1.603c1.266,0.407,2.777,1.312,3.479,2.281c0.902,1.265,1.018,2.868,0.562,4.358
			c-0.541,1.807-2.076,2.71-3.726,3.207C133.807-33.885,131.322-33.906,129.629-34.199z"/>
		<path fill="#020202" d="M151.537-40.907H145.8v6.843h-4.63v-17.389h4.63v6.571h5.736v-6.571h4.584v17.389h-4.584L151.537-40.907
			L151.537-40.907z"/>
		<path fill="#020202" d="M169.445-37.203h-5.983l-1.241,3.139h-4.97l7.138-17.366h4.154l7.046,17.366h-4.878L169.445-37.203z
			 M165.02-41.223h2.867l-1.422-3.951L165.02-41.223z"/>
		<path fill="#020202" d="M186-39.801c-0.068-0.43-0.654-0.699-1.242-0.699h-3.5v6.436h-4.539v-17.389h8.648
			c1.062,0,2.349,0.181,3.41,0.723c1.242,0.633,1.783,1.626,2.123,2.733c0.314,1.039,0.226,2.213,0,3.162
			c-0.271,1.039-1.019,1.985-2.01,2.416c0.946,0.497,1.398,1.423,1.533,2.349c0.229,1.56,0.7,3.93,1.739,6.007h-4.944
			C186.609-36.007,186.271-38.061,186-39.801z M181.258-47.456v2.891h3.297c0.451,0,0.858-0.045,1.129-0.293
			c0.701-0.564,0.836-1.693,0.068-2.235c-0.361-0.249-0.857-0.36-1.197-0.36L181.258-47.456L181.258-47.456z"/>
		<path fill="#020202" d="M193.432-51.453h13.008v4.088h-8.399v2.483h7.497v4.042h-7.497v2.711h8.854v4.042h-13.459v-17.366H193.432
			z"/>
	</g>
	<rect x="123.916" y="-28.74" fill="#020202" width="83" height="5"/>
</g>
</svg>
