<?xml version="1.0" encoding="utf-8"?>
<!-- Generator: Adobe Illustrator 16.0.0, SVG Export Plug-In . SVG Version: 6.00 Build 0)  -->
<!DOCTYPE svg PUBLIC "-//W3C//DTD SVG 1.1//EN" "http://www.w3.org/Graphics/SVG/1.1/DTD/svg11.dtd">
<svg version="1.1" id="Layer_1" xmlns="http://www.w3.org/2000/svg" xmlns:xlink="http://www.w3.org/1999/xlink" x="0px" y="0px"
	 width="121px" height="38.693px" viewBox="0 0 121 38.693" enable-background="new 0 0 121 38.693" xml:space="preserve">
<g>
	<g>
		<path fill="#020202" d="M10.846,3.811v3.546h1.58v1.896c0.543-0.314,0.882-0.926,0.882-1.83V3.877h8.354l-0.021,4.382
			c0.181,0.247,0.361,0.271,0.542,0.067V5.843l3.116,1.783c0.066,1.175,0.021,2.213-0.135,3.116
			c-0.316,1.062-1.039,1.581-2.19,1.581h-3.683c-0.789,0-1.287-0.429-1.514-1.265V8.121h-0.404c-0.316,2.146-0.949,3.728-1.875,4.72
			h8.354v3.546c-0.563,1.266-1.222,2.417-1.966,3.479c1.175,0.294,2.395,0.543,3.637,0.701l-1.671,4.402l-1.627-0.406
			c-1.515-0.384-2.867-0.993-4.108-1.625c-1.221,0.698-2.463,1.332-3.816,1.691l-1.717,0.451c-0.563-1.084-1.15-2.213-1.737-3.41
			v1.333c-0.271,1.084-0.904,1.717-1.921,1.897H5.696L4.68,20.63l1.58,0.022c0.385,0,0.588-0.248,0.634-0.724v-2.102l-2.306,0.249
			l-0.111-4.312l2.417-0.315v-2.168H4.588v-3.93h2.306V3.804h3.952V3.811L10.846,3.811z M10.846,11.285v1.739l1.58-0.183v4.134
			l-1.58,0.314l-0.021,3.613c1.264-0.09,2.438-0.338,3.521-0.724c-0.744-0.79-1.399-1.579-1.986-2.35l1.626-0.812h-1.106v-4.181
			h0.858l-1.267-1.558h-1.625V11.285z M17.959,17.97c0.34-0.271,0.68-0.588,0.994-0.947h-1.785
			C17.351,17.406,17.621,17.722,17.959,17.97z"/>
		<path fill="#020202" d="M47.951,19.53h-3.004c0.836,0.608,1.942,1.219,3.342,1.829l-2.303,3.478
			c-2.102-1.062-3.93-2.349-5.488-3.859l1.445-1.445h-1.874v2.1c0,1.966-0.993,3.141-2.8,3.141h-2.508l-1.129-2.507
			c-1.332,1.22-2.598,2.056-3.795,2.507l-2.506-2.958c1.219-0.564,2.303-1.332,3.252-2.28h-3.141v-3.343h20.506L47.951,19.53
			L47.951,19.53z M47.86,7.288h-6.028V7.81h4.877v5.104H28.848V7.81h4.605V7.288h-5.646V3.991h20.054L47.86,7.288L47.86,7.288z
			 M46.031,15.802H29.32v-2.35h16.711V15.802z M32.504,10.813h0.949v-0.452h-0.949V10.813z M35.848,19.53H33.86l1.242,1.129
			c-0.067,0.248-0.271,0.496-0.61,0.769h1.355V19.53z M37.271,7.809h0.993V7.287h-0.993V7.809z M37.271,10.813h0.993v-0.452h-0.993
			V10.813z M41.832,10.813h1.017v-0.452h-1.017V10.813z"/>
		<path fill="#020202" d="M64.621,24.971V24.45h-8.086v0.521h-4.494V3.948h17.164v21.023H64.621z M56.535,8.711v3.161h8.086V8.711
			H56.535z M56.535,16.571v3.139h8.086v-3.139H56.535z"/>
		<path fill="#020202" d="M81.084,3.833h4.697v1.58h7.611v5.76h-4.428V9.591H85.42c-0.248,0.746-0.541,1.445-0.881,2.103h9.189v4.2
			h-2.893c-0.449,1.175-1.084,2.259-1.918,3.252c1.535,0.746,3.186,1.469,4.944,2.168l-2.913,3.682
			c-1.354-0.562-3.115-1.399-5.283-2.507c-3.162,1.399-6.504,2.234-10.027,2.507l-2.395-4.381c2.371,0,4.652-0.203,6.844-0.588
			c-1.604-0.496-3.297-0.926-5.082-1.265c0.701-1.062,1.377-2.012,2.057-2.868H73v-4.2l6.524,0.021
			c0.339-0.541,0.679-1.241,0.993-2.123H77.58v1.582h-4.291v-5.76h7.791v-1.58H81.084z M84.519,17.383
			c0.495-0.52,0.88-1.017,1.174-1.489h-3.478l-0.295,0.653C82.778,16.796,83.66,17.068,84.519,17.383z"/>
		<path fill="#020202" d="M102.338,6.477h2.979v-2.6h4.109l-0.021,12.761c0,3.433-1.443,6.188-3.455,8.333l-3.885-2.417
			c1.084-0.927,1.941-1.853,2.553-2.776l-2.395,0.339l-0.112-2.823l-0.563,0.137l0.021,5.035c0,1.535-0.857,2.371-2.214,2.508
			h-2.821l-0.791-3.931l1.105-0.021c0.564-0.137,0.836-0.477,0.836-1.019v-1.985l-1.311,0.271l-0.315-4.063l1.626-0.315v-2.101
			h-1.626v-4.2h1.626V3.95h3.861v3.658h0.789v-1.13h0.004V6.477z M102.541,13.093v-1.287h-0.994v1.489L102.541,13.093z
			 M105.317,10.813h-2.416v0.405h2.416V10.813z M105.317,15.011h-2.325l-0.021,0.724l2.349-0.406L105.317,15.011L105.317,15.011z
			 M113.922,10.609v0.927h2.756v3.861h-2.756v1.174h2.824v3.952h-2.824v4.382h-4.178l0.045-21.025h4.133v2.554h2.711v4.178
			L113.922,10.609L113.922,10.609z"/>
	</g>
	<rect x="3.98" y="31.198" fill="#020202" width="113" height="5"/>
</g>
</svg>
