<?xml version="1.0" encoding="utf-8"?>
<!-- Generator: Adobe Illustrator 15.0.0, SVG Export Plug-In . SVG Version: 6.00 Build 0)  -->
<!DOCTYPE svg PUBLIC "-//W3C//DTD SVG 1.1//EN" "http://www.w3.org/Graphics/SVG/1.1/DTD/svg11.dtd">
<svg version="1.1" id="Layer_1" xmlns="http://www.w3.org/2000/svg" xmlns:xlink="http://www.w3.org/1999/xlink" x="0px" y="0px"
	 width="113.659px" height="40px" viewBox="0 0 113.659 40" enable-background="new 0 0 113.659 40" xml:space="preserve">
<g>
	<g>
		<path fill="#FFFFFF" d="M7.76,9.614v3.545h1.58v1.897c0.542-0.316,0.881-0.926,0.881-1.83V9.682h8.355l-0.022,4.381
			c0.181,0.249,0.361,0.271,0.542,0.068v-2.484l3.117,1.784c0.067,1.174,0.022,2.213-0.136,3.116
			c-0.316,1.062-1.039,1.581-2.19,1.581h-3.682c-0.79,0-1.287-0.429-1.513-1.265v-2.936h-0.406c-0.316,2.146-0.949,3.726-1.875,4.72
			h8.356v3.545c-0.565,1.265-1.22,2.417-1.965,3.478c1.174,0.294,2.394,0.543,3.636,0.701l-1.671,4.403l-1.627-0.407
			c-1.513-0.383-2.867-0.993-4.109-1.625c-1.22,0.699-2.462,1.332-3.816,1.693l-1.717,0.451c-0.564-1.084-1.151-2.213-1.738-3.41
			v1.333c-0.271,1.084-0.904,1.716-1.92,1.897H2.61l-1.017-4.269l1.581,0.022c0.384,0,0.587-0.248,0.633-0.723v-2.101l-2.304,0.249
			l-0.113-4.313l2.417-0.316v-2.168H1.504v-3.93h2.304V9.614H7.76z M7.76,17.089v1.739l1.58-0.181v4.132l-1.58,0.316l-0.023,3.613
			c1.265-0.09,2.439-0.338,3.523-0.723c-0.745-0.79-1.4-1.58-1.987-2.349l1.626-0.812H9.792v-4.178h0.858l-1.266-1.558H7.76z
			 M14.873,23.773c0.339-0.271,0.678-0.587,0.993-0.948h-1.784C14.264,23.209,14.534,23.525,14.873,23.773z"/>
		<path fill="#FFFFFF" d="M44.865,25.332h-3.004c0.836,0.609,1.942,1.219,3.342,1.829L42.9,30.639
			c-2.101-1.062-3.93-2.349-5.488-3.861l1.445-1.445h-1.874v2.1c0,1.965-0.993,3.139-2.8,3.139h-2.507l-1.13-2.506
			c-1.332,1.219-2.597,2.055-3.794,2.506l-2.507-2.958c1.22-0.564,2.304-1.332,3.252-2.28h-3.139v-3.343h20.506V25.332z
			 M44.774,13.092h-6.029v0.52h4.878v5.104H25.76v-5.104h4.606v-0.52h-5.646V9.794h20.054V13.092z M42.945,21.605H26.234v-2.349
			h16.711V21.605z M29.418,16.615h0.948v-0.452h-0.948V16.615z M32.761,25.332h-1.987l1.242,1.129
			c-0.068,0.248-0.271,0.496-0.61,0.768h1.355V25.332z M34.184,13.611h0.993v-0.52h-0.993V13.611z M34.184,16.615h0.993v-0.452
			h-0.993V16.615z M38.745,16.615h1.016v-0.452h-1.016V16.615z"/>
		<path fill="#FFFFFF" d="M61.534,30.774v-0.52h-8.085v0.52h-4.494V9.75h17.163v21.025H61.534z M53.449,14.515v3.161h8.085v-3.161
			H53.449z M53.449,22.373v3.139h8.085v-3.139H53.449z"/>
		<path fill="#FFFFFF" d="M77.998,9.637h4.697v1.581h7.611v5.759H85.88v-1.581h-3.546c-0.248,0.746-0.541,1.445-0.88,2.1h9.19v4.2
			h-2.891c-0.451,1.175-1.084,2.259-1.919,3.252c1.535,0.746,3.185,1.469,4.945,2.168l-2.913,3.682
			c-1.354-0.564-3.116-1.4-5.284-2.507c-3.162,1.4-6.504,2.235-10.027,2.507l-2.394-4.381c2.371,0,4.652-0.203,6.843-0.588
			c-1.604-0.496-3.297-0.926-5.081-1.264c0.7-1.062,1.377-2.011,2.055-2.869h-4.064v-4.2l6.526,0.023
			c0.339-0.542,0.678-1.242,0.993-2.123h-2.936v1.581h-4.291v-5.759h7.791V9.637z M81.432,23.187c0.496-0.52,0.88-1.017,1.174-1.491
			h-3.478l-0.294,0.655C79.692,22.6,80.573,22.87,81.432,23.187z"/>
		<path fill="#FFFFFF" d="M99.251,12.279h2.98V9.682h4.11l-0.022,12.76c0,3.432-1.445,6.188-3.455,8.333l-3.885-2.417
			c1.084-0.926,1.942-1.852,2.552-2.777l-2.394,0.339l-0.112-2.823l-0.564,0.136l0.022,5.036c0,1.535-0.858,2.371-2.214,2.507
			h-2.822l-0.791-3.93l1.107-0.022c0.564-0.136,0.835-0.475,0.835-1.017v-1.987l-1.31,0.271l-0.316-4.065l1.626-0.316v-2.1h-1.626
			v-4.201h1.626V9.75h3.862v3.658h0.79V12.279z M99.454,18.896v-1.287h-0.993v1.49L99.454,18.896z M102.231,16.615h-2.416v0.406
			h2.416V16.615z M102.231,20.815h-2.325l-0.023,0.722l2.349-0.406V20.815z M110.836,16.411v0.926h2.755v3.862h-2.755v1.174h2.823
			v3.952h-2.823v4.382h-4.178l0.045-21.025h4.133v2.552h2.71v4.178H110.836z"/>
	</g>
	<rect y="36" fill="#FFFFFF" width="113" height="4"/>
	<rect fill="#FFFFFF" width="113" height="4"/>
</g>
</svg>
