<?xml version="1.0" encoding="utf-8"?>
<!-- Generator: Adobe Illustrator 16.0.0, SVG Export Plug-In . SVG Version: 6.00 Build 0)  -->
<!DOCTYPE svg PUBLIC "-//W3C//DTD SVG 1.1//EN" "http://www.w3.org/Graphics/SVG/1.1/DTD/svg11.dtd">
<svg version="1.1" id="Layer_1" xmlns="http://www.w3.org/2000/svg" xmlns:xlink="http://www.w3.org/1999/xlink" x="0px" y="0px"
	 width="113px" height="45.693px" viewBox="0 0 113 45.693" enable-background="new 0 0 113 45.693" xml:space="preserve">
<g>
	<g>
		<path fill="#020202" d="M6.866,11.614v3.546h1.579v1.896c0.543-0.313,0.882-0.926,0.882-1.83V11.68h8.354l-0.021,4.384
			c0.181,0.245,0.361,0.271,0.542,0.065v-2.481l3.116,1.781c0.065,1.177,0.021,2.213-0.135,3.116
			c-0.316,1.062-1.039,1.581-2.19,1.581h-3.683c-0.789,0-1.287-0.429-1.515-1.265v-2.938h-0.403
			c-0.316,2.146-0.949,3.729-1.875,4.72h8.354v3.548c-0.562,1.265-1.223,2.417-1.965,3.478c1.174,0.294,2.394,0.543,3.636,0.701
			l-1.671,4.403l-1.627-0.407c-1.516-0.383-2.867-0.993-4.107-1.625c-1.222,0.699-2.464,1.332-3.816,1.69l-1.717,0.451
			c-0.563-1.084-1.15-2.213-1.737-3.41v1.333c-0.271,1.084-0.904,1.719-1.921,1.897H1.716l-1.017-4.271l1.58,0.022
			c0.385,0,0.588-0.248,0.634-0.723v-2.104l-2.306,0.249l-0.111-4.312l2.417-0.316V19.08H0.607v-3.93h2.306v-3.546h3.952
			L6.866,11.614L6.866,11.614z M6.866,19.088v1.739l1.579-0.182v4.133l-1.579,0.313l-0.023,3.613
			c1.265-0.09,2.438-0.338,3.523-0.723c-0.745-0.79-1.4-1.58-1.987-2.352l1.626-0.812H8.898v-4.182h0.858L8.491,19.08H6.866V19.088z
			 M13.979,25.774c0.34-0.271,0.681-0.59,0.994-0.948h-1.785C13.37,25.209,13.641,25.526,13.979,25.774z"/>
		<path fill="#020202" d="M43.971,27.332h-3.004c0.836,0.609,1.942,1.219,3.342,1.829l-2.303,3.478
			c-2.102-1.062-3.93-2.349-5.488-3.858l1.445-1.445h-1.874v2.1c0,1.968-0.993,3.142-2.8,3.142h-2.508l-1.129-2.506
			c-1.332,1.219-2.598,2.055-3.795,2.506l-2.506-2.958c1.219-0.564,2.303-1.332,3.252-2.28h-3.142v-3.343h20.506L43.971,27.332
			L43.971,27.332z M43.88,15.091h-6.028v0.521h4.877v5.104h-17.86v-5.104h4.604v-0.521h-5.646v-3.297h20.054L43.88,15.091
			L43.88,15.091z M42.051,23.606H25.34v-2.352h16.711V23.606z M28.523,18.615h0.949v-0.452h-0.949V18.615z M31.867,27.332H29.88
			l1.242,1.129c-0.067,0.248-0.271,0.496-0.61,0.771h1.355V27.332z M33.29,15.612h0.993V15.09H33.29V15.612z M33.29,18.615h0.993
			v-0.452H33.29V18.615z M37.852,18.615h1.018v-0.452h-1.018V18.615z"/>
		<path fill="#020202" d="M60.641,32.775v-0.521h-8.086v0.521h-4.494V11.75h17.164v21.024H60.641z M52.555,16.514v3.161h8.086
			v-3.161H52.555z M52.555,24.373v3.139h8.086v-3.139H52.555z"/>
		<path fill="#020202" d="M77.104,11.636h4.697v1.58h7.611v5.76h-4.428v-1.582h-3.545c-0.248,0.746-0.541,1.445-0.881,2.104h9.188
			v4.2h-2.894c-0.449,1.175-1.084,2.259-1.918,3.252c1.535,0.746,3.187,1.469,4.944,2.168l-2.913,3.682
			c-1.354-0.562-3.115-1.397-5.283-2.507c-3.162,1.4-6.504,2.235-10.025,2.507l-2.396-4.381c2.371,0,4.652-0.203,6.844-0.588
			c-1.604-0.496-3.297-0.926-5.082-1.264c0.701-1.062,1.377-2.014,2.058-2.869H69.02v-4.2l6.523,0.021
			c0.339-0.541,0.68-1.239,0.993-2.122h-2.938v1.581h-4.291v-5.76h7.791v-1.58L77.104,11.636L77.104,11.636z M80.538,25.186
			c0.496-0.52,0.88-1.017,1.174-1.488h-3.478l-0.295,0.652C78.798,24.599,79.68,24.87,80.538,25.186z"/>
		<path fill="#020202" d="M98.357,14.28h2.979v-2.601h4.109l-0.021,12.763c0,3.432-1.443,6.188-3.455,8.333l-3.885-2.417
			c1.084-0.929,1.941-1.854,2.553-2.777l-2.395,0.339l-0.112-2.823l-0.563,0.139l0.021,5.033c0,1.535-0.857,2.371-2.214,2.51h-2.822
			l-0.79-3.933l1.106-0.021c0.563-0.136,0.835-0.478,0.835-1.02v-1.984l-1.311,0.271l-0.315-4.062l1.626-0.315v-2.101h-1.626v-4.2
			h1.626v-3.658h3.861v3.658h0.789v-1.13h0.004V14.28L98.357,14.28z M98.561,20.897V19.61h-0.994v1.487L98.561,20.897z
			 M101.337,18.615h-2.416v0.406h2.416V18.615z M101.337,22.815h-2.325l-0.021,0.723l2.349-0.406L101.337,22.815L101.337,22.815z
			 M109.941,18.411v0.927h2.756v3.861h-2.756v1.174h2.824v3.952h-2.824v4.382h-4.178l0.045-21.025h4.133v2.555h2.711v4.178
			L109.941,18.411L109.941,18.411z"/>
	</g>
	<rect y="39" fill="#020202" width="113" height="5"/>
	<rect y="0" fill="#020202" width="113" height="5"/>
</g>
</svg>
