<?xml version="1.0" encoding="utf-8"?>
<!-- Generator: Adobe Illustrator 15.0.0, SVG Export Plug-In . SVG Version: 6.00 Build 0)  -->
<!DOCTYPE svg PUBLIC "-//W3C//DTD SVG 1.1//EN" "http://www.w3.org/Graphics/SVG/1.1/DTD/svg11.dtd">
<svg version="1.1" id="Layer_1" xmlns="http://www.w3.org/2000/svg" xmlns:xlink="http://www.w3.org/1999/xlink" x="0px" y="0px"
	 width="137.422px" height="74.777px" viewBox="0 0 137.422 74.777" enable-background="new 0 0 137.422 74.777"
	 xml:space="preserve">
<g>
	<g>
		<g>
			<path fill="#231F20" d="M27.033,0.066l-1.398,0.359c-0.286-0.256-0.667-0.416-1.077-0.424c-0.936-0.028-1.718,0.714-1.742,1.654
				c-0.008,0.36,0.098,0.694,0.283,0.976l-0.065-0.008L14.24,8.01c0,0,2.272,2.086,4.792,2.071v2.149h0.819V9.998
				c0.157-0.032,0.318-0.077,0.482-0.133v2.365h0.811V9.489c1.375-0.822,2.653-2.633,3.51-6.102
				c0.852-0.072,1.529-0.774,1.555-1.646c0-0.103-0.007-0.208-0.023-0.304L27.033,0.066z M24.464,1.574
				c-0.177-0.002-0.323-0.152-0.314-0.334c0.005-0.179,0.152-0.317,0.331-0.312c0.178,0.007,0.316,0.15,0.31,0.329
				C24.787,1.437,24.64,1.58,24.464,1.574z"/>
			<g>
				<path fill="#231F20" d="M20.448,52.33C9.176,52.33,0,43.162,0,31.892c0-11.271,9.176-20.449,20.448-20.449
					c11.269,0,20.441,9.178,20.441,20.449C40.89,43.162,31.717,52.33,20.448,52.33z M20.448,13.658
					c-10.061,0-18.235,8.179-18.235,18.234c0,10.049,8.175,18.232,18.235,18.232c10.053,0,18.229-8.183,18.229-18.232
					C38.677,21.837,30.501,13.658,20.448,13.658z"/>
			</g>
			<g>
				<g>
					<path fill="#231F20" d="M8.635,64.597v-1.121H7.62v1.121H5.976v-3.703l-1.015,1.129c-0.083-0.583-0.222-1.247-0.41-1.827v4.496
						H2.899v-3.208c-0.381,0.619-0.838,1.23-1.33,1.782l-0.149-0.11c0.538-1.452,1.028-2.96,1.167-4.599H1.548v-0.333h1.352v-1.508
						c-0.312,0-0.965,0.014-1.33,0L1.548,56.54c1.05-0.443,2.076-0.918,2.974-1.757l1.256,1.45c-0.373,0.11-0.816,0.216-1.227,0.307
						v1.684h1.204v0.333H4.551v0.478c0.485,0.443,1.023,1.051,1.425,1.625v-5.07h4.274v9.008H8.635z M8.635,55.924H7.62v7.219h1.015
						V55.924z"/>
					<path fill="#231F20" d="M16.895,60.61v4.113H15.16V60.61h-3.563v-0.347h3.563v-4.632h-3.259v-0.349h8.285v0.349h-3.292v4.632
						h3.579v0.347H16.895z M12.955,59.943c-0.112-1.195-0.362-2.349-0.753-3.436l0.633-0.307c0.703,0.893,1.34,1.868,1.79,2.898
						L12.955,59.943z M17.453,59.866l-0.17-0.132c0.496-1.11,0.836-2.284,1.021-3.534l1.849,0.619
						C19.457,57.948,18.496,59.076,17.453,59.866z"/>
					<path fill="#231F20" d="M24.062,57.45v7.241h-1.599v-4.825c-0.187,0.219-0.548,0.618-0.801,0.884l-0.159-0.123
						c0.757-1.751,1.184-3.785,1.41-5.75l1.806,0.434C24.546,56.03,24.322,56.739,24.062,57.45z M28.032,57.484v2.39h2.131v4.818
						h-1.621v-0.65h-2.314v0.65h-1.682v-4.818h1.803v-4.858h1.684v2.135h2.508v0.334H28.032z M28.542,60.22h-2.314v3.476h2.314
						V60.22z"/>
					<path fill="#231F20" d="M37.047,61.449v3.211h-1.751v-3.211h-3.191v-4.412h3.191v-2.046h1.751v2.046h3.134v4.412H37.047z
						 M35.296,57.387h-1.408v3.719h1.408V57.387z M38.458,57.387h-1.411v3.719h1.411V57.387z"/>
				</g>
				<g>
					<path fill="#231F20" d="M2.247,68.253c0.129-0.744,0.731-1.222,1.316-1.222c0.642,0,1.021,0.545,0.912,1.203
						c-0.111,0.662-0.676,1.213-1.323,1.213c-0.646,0-1.008-0.572-0.905-1.188V68.253z M2.676,68.235
						c-0.066,0.424,0.146,0.8,0.557,0.8c0.428,0,0.745-0.415,0.811-0.798c0.068-0.388-0.113-0.798-0.546-0.798
						c-0.427,0-0.75,0.386-0.821,0.792V68.235z"/>
					<path fill="#231F20" d="M6.967,68.619c-0.211,0.479-0.683,0.828-1.178,0.828c-0.645,0-1.007-0.572-0.901-1.217
						c0.101-0.615,0.639-1.199,1.308-1.199c0.61,0.004,0.868,0.49,0.891,0.837H6.642c-0.039-0.162-0.183-0.427-0.519-0.43
						c-0.413,0-0.744,0.379-0.81,0.792c-0.066,0.424,0.144,0.804,0.544,0.804c0.375,0,0.605-0.329,0.659-0.415H6.967z"/>
					<path fill="#231F20" d="M9.507,68.619c-0.208,0.479-0.68,0.828-1.174,0.828c-0.642,0-1.014-0.572-0.903-1.217
						c0.104-0.615,0.645-1.199,1.311-1.199c0.607,0.004,0.866,0.49,0.896,0.837h-0.45c-0.042-0.162-0.185-0.427-0.522-0.43
						c-0.41,0-0.738,0.379-0.805,0.792c-0.073,0.424,0.137,0.804,0.541,0.804c0.38,0,0.602-0.329,0.657-0.415H9.507z"/>
					<path fill="#231F20" d="M10.678,67.071l-0.238,1.435c-0.02,0.114-0.041,0.233,0,0.349c0.036,0.103,0.115,0.181,0.26,0.181
						c0.139,0,0.245-0.074,0.306-0.17c0.077-0.11,0.101-0.239,0.125-0.359l0.234-1.435h0.43l-0.242,1.435
						c-0.062,0.344-0.152,0.552-0.336,0.718c-0.157,0.129-0.356,0.225-0.585,0.225c-0.155,0-0.389-0.046-0.515-0.225
						c-0.16-0.204-0.158-0.408-0.102-0.718l0.236-1.435H10.678z"/>
					<path fill="#231F20" d="M13.019,67.071c0.356,0,0.495,0.056,0.601,0.162c0.128,0.141,0.172,0.366,0.136,0.594
						c-0.038,0.231-0.163,0.469-0.319,0.589c-0.167,0.129-0.318,0.184-0.63,0.184h-0.258l-0.133,0.803h-0.428l0.394-2.331H13.019z
						 M12.617,68.187h0.256c0.094,0,0.187-0.006,0.282-0.059c0.084-0.038,0.169-0.146,0.191-0.292
						c0.023-0.151-0.022-0.246-0.1-0.294c-0.074-0.051-0.171-0.056-0.275-0.056h-0.233L12.617,68.187z"/>
					<path fill="#231F20" d="M14.543,68.563l-0.396-1.492h0.46l0.222,1.058l0.583-1.058h0.456l-0.895,1.492l-0.145,0.839h-0.426
						L14.543,68.563z"/>
					<path fill="#231F20" d="M19.153,68.619c-0.213,0.479-0.68,0.828-1.177,0.828c-0.646,0-1.007-0.572-0.905-1.217
						c0.107-0.615,0.639-1.199,1.313-1.199c0.608,0.004,0.865,0.49,0.894,0.837h-0.45c-0.038-0.162-0.183-0.427-0.518-0.43
						c-0.416,0-0.74,0.379-0.808,0.792c-0.073,0.424,0.142,0.804,0.543,0.804c0.376,0,0.603-0.329,0.657-0.415H19.153z"/>
					<path fill="#231F20" d="M19.899,67.071h1.188l-0.068,0.416h-0.76l-0.09,0.524h0.748l-0.074,0.412h-0.745l-0.091,0.562h0.761
						l-0.072,0.416h-1.186L19.899,67.071z"/>
					<path fill="#231F20" d="M22.709,68.683l0.264-1.612h0.407l-0.391,2.331h-0.38l-0.706-1.613l-0.259,1.613h-0.411l0.388-2.331
						h0.386L22.709,68.683z"/>
					<path fill="#231F20" d="M24.191,67.487h-0.454l0.067-0.416h1.342l-0.069,0.416H24.62l-0.319,1.915h-0.427L24.191,67.487z"/>
					<path fill="#231F20" d="M25.562,67.071h0.633c0.33,0,0.512,0.056,0.607,0.148c0.156,0.137,0.206,0.376,0.166,0.63
						c-0.028,0.174-0.099,0.321-0.188,0.438c-0.116,0.146-0.244,0.212-0.393,0.254l0.328,0.86H26.27l-0.385-1.084h0.081
						c0.138,0,0.292-0.008,0.39-0.087c0.098-0.073,0.169-0.197,0.198-0.336c0.023-0.143-0.019-0.271-0.101-0.345
						c-0.071-0.046-0.167-0.063-0.293-0.063h-0.248l-0.315,1.915h-0.436L25.562,67.071z"/>
					<path fill="#231F20" d="M27.455,69.402h-0.467l1.249-2.331h0.379l0.443,2.331h-0.466l-0.074-0.46h-0.838L27.455,69.402z
						 M28.316,67.628l-0.453,0.941h0.601L28.316,67.628z"/>
					<path fill="#231F20" d="M29.884,67.071h0.425l-0.32,1.915h0.691l-0.067,0.416h-1.12L29.884,67.071z"/>
					<path fill="#231F20" d="M32.21,67.071h0.43l0.081,1.688l0.651-1.688h0.323l0.093,1.694l0.643-1.694h0.429l-0.967,2.331h-0.385
						l-0.091-1.655l-0.645,1.655h-0.391L32.21,67.071z"/>
					<path fill="#231F20" d="M35.307,67.071h0.423l-0.392,2.331h-0.423L35.307,67.071z"/>
					<path fill="#231F20" d="M36.54,67.487h-0.459l0.074-0.416h1.337l-0.066,0.416h-0.458l-0.325,1.915H36.22L36.54,67.487z"/>
					<path fill="#231F20" d="M37.521,69.402l0.392-2.331h0.427l-0.158,0.938h0.812l0.157-0.938h0.43l-0.396,2.331h-0.425
						l0.169-0.984h-0.82l-0.161,0.984H37.521z"/>
				</g>
				<path fill="#231F20" d="M2.835,70.981h0.746L3.165,73.47h0.862l-0.121,0.717h-1.61L2.835,70.981z"/>
				<path fill="#231F20" d="M4.454,72.619c0.172-1.048,1.018-1.699,1.819-1.699c0.896,0,1.41,0.772,1.257,1.662
					c-0.149,0.894-0.922,1.665-1.824,1.665c-0.915,0-1.395-0.799-1.252-1.626V72.619z M5.203,72.582
					c-0.088,0.488,0.141,0.945,0.64,0.945c0.527,0,0.879-0.526,0.946-0.937c0.066-0.415-0.1-0.946-0.639-0.946
					c-0.511,0-0.874,0.48-0.947,0.936V72.582z"/>
				<path fill="#231F20" d="M8.094,70.981H8.86l0.213,2.253l0.975-2.253h0.767l-1.52,3.206H8.527L8.094,70.981z"/>
				<path fill="#231F20" d="M11.415,70.981h1.649l-0.125,0.721h-0.901l-0.089,0.5h0.879l-0.119,0.717H11.83l-0.091,0.552h0.907
					l-0.122,0.717h-1.651L11.415,70.981z"/>
				<path fill="#231F20" d="M15.178,74.187H14.37l1.694-3.206h0.641l0.578,3.206h-0.814l-0.06-0.463h-1.021L15.178,74.187z
					 M16.187,71.955l-0.5,1.122h0.646L16.187,71.955z"/>
				<path fill="#231F20" d="M19.829,72.936l0.311-1.955h0.713l-0.536,3.206h-0.647l-0.786-1.927l-0.313,1.927h-0.706l0.532-3.206
					h0.641L19.829,72.936z"/>
				<path fill="#231F20" d="M21.662,70.981h0.961c0.324,0,0.907,0,1.19,0.604c0.148,0.302,0.158,0.642,0.098,0.996
					c-0.147,0.87-0.666,1.606-1.772,1.606h-1.022L21.662,70.981z M21.981,73.47h0.325c0.552,0,0.777-0.423,0.858-0.879
					c0.03-0.185,0.035-0.415-0.043-0.591c-0.062-0.145-0.185-0.299-0.519-0.299h-0.321L21.981,73.47z"/>
				<path fill="#231F20" d="M27.298,70.981c0.539,0,0.723,0.09,0.857,0.237c0.19,0.207,0.258,0.524,0.199,0.85
					c-0.055,0.322-0.233,0.666-0.45,0.842c-0.233,0.181-0.445,0.275-0.896,0.275h-0.289l-0.173,1.002h-0.743l0.541-3.206H27.298z
					 M26.841,72.468h0.276c0.067,0,0.182,0,0.291-0.052c0.105-0.049,0.198-0.146,0.232-0.336c0.03-0.191-0.038-0.281-0.129-0.333
					c-0.098-0.046-0.221-0.046-0.303-0.046h-0.241L26.841,72.468z"/>
				<path fill="#231F20" d="M29.123,70.981h1.649l-0.119,0.721h-0.908l-0.083,0.5h0.874l-0.117,0.717h-0.878l-0.092,0.552h0.906
					l-0.123,0.717h-1.647L29.123,70.981z"/>
				<path fill="#231F20" d="M31.513,74.187H30.71l1.691-3.206h0.645l0.577,3.206h-0.822l-0.056-0.463h-1.02L31.513,74.187z
					 M32.524,71.955l-0.502,1.122h0.64L32.524,71.955z"/>
				<path fill="#231F20" d="M37.047,72.992c-0.297,0.754-0.98,1.255-1.683,1.255c-0.918,0-1.402-0.799-1.254-1.665
					c0.14-0.819,0.856-1.662,1.806-1.662c0.915,0,1.272,0.777,1.266,1.281h-0.78c-0.044-0.239-0.209-0.557-0.604-0.557
					c-0.507,0-0.867,0.479-0.938,0.936c-0.088,0.479,0.133,0.947,0.616,0.947c0.465,0,0.727-0.423,0.795-0.535H37.047z"/>
				<path fill="#231F20" d="M38.047,70.981h1.65l-0.127,0.721h-0.905l-0.078,0.5h0.873l-0.119,0.717h-0.878l-0.089,0.552h0.905
					l-0.126,0.717h-1.652L38.047,70.981z"/>
			</g>
		</g>
		<path fill="#FFFFFF" d="M44.465,43.583c2.776-0.484,4.578-1.27,5.64-1.823h-2.886v-3.392h9.862
			c2.457,2.949,6.003,4.477,8.42,5.304L63.91,47.74c-0.595-0.231-1.169-0.465-2.06-0.91v1.314h-4.812v1.253h6.529v3.475h-6.529
			v1.296h7.974v3.729H44.931v-3.729h8.14v-1.296h-6.506v-3.475h6.506v-1.253h-4.725v-1.463c-0.85,0.427-1.632,0.72-2.356,0.997
			L44.465,43.583z M58.225,44.626c-1.546-1.17-2.438-2.057-3.158-2.845c-0.654,0.722-1.525,1.656-3.203,2.845H58.225z"/>
		<path fill="#FFFFFF" d="M68.207,54.106c0.68-0.044,1.019-0.044,1.484-0.109V38.539h18.088v7.272h-5.98
			c0.045,0.448,0.066,0.702,0.107,1.062H88.5v3.924h-5.786c0.721,2.288,1.523,2.926,1.929,2.926c0.593,0,1.823-1.552,2.311-2.694
			l2.057,4.263c-0.698,1.336-2.312,3.221-4.156,3.221c-1.504,0-2.947-1.248-3.585-1.907c-1.653-1.761-2.523-4.921-2.755-5.808
			h-4.854v2.732c3.158-0.466,4.261-0.765,5.064-0.977v3.863c-1.186,0.377-7.336,1.673-10.069,1.946L68.207,54.106z M73.659,41.932
			v0.826h10.047v-0.826H73.659z M77.794,46.874c-0.044-0.509-0.044-0.743-0.044-1.062h-4.091v1.062H77.794z"/>
		<path fill="#FFFFFF" d="M110.844,47.212v3.752c-0.276,0.571-0.635,1.38-1.926,2.693c1.8,0.531,3.092,0.699,3.855,0.805
			l-1.866,4.072c-1.122-0.293-3.115-0.826-5.727-2.117c-2.754,1.439-4.75,1.779-5.765,1.967l-1.484-3.962v1.95
			c0,0.932-0.254,2.012-1.911,2.012h-3.053l-0.637-4.045h1.423c0.511,0,0.533-0.277,0.533-0.703v-1.719
			c-0.6,0.173-0.938,0.255-1.658,0.427l-0.337-4.007c0.487-0.088,0.847-0.148,1.995-0.426V45.09h-1.87v-3.712h1.87v-3.221h3.645
			v3.221h1.231v2.121c1.058-0.996,1.334-2.139,1.334-3.308v-1.757h8.291v3.624c0,0.615,0.062,0.615,0.527,0.615
			c0.255,0,0.299-0.232,0.322-0.426c0.043-0.316,0.06-1.164,0.06-1.697l2.993,0.977c-0.106,4.011-0.698,5.025-2.46,5.025h-2.993
			c-1.081,0-2.139-0.127-2.139-2.139v-2.482h-0.911c-0.192,2.206-1.019,3.946-2.736,5.28H110.844z M100.859,47.212l-1.696-2.183
			v0.061h-1.231v1.846c0.528-0.149,0.783-0.212,1.231-0.383v3.797c-0.344,0.148-0.556,0.232-1.231,0.465v3.563
			c0.783-0.039,1.931-0.105,3.437-0.549c-0.853-0.765-1.317-1.296-1.762-1.806l1.974-1.06h-1.847v-3.752H100.859z M103.463,50.964
			c0.725,0.594,1.276,0.913,1.657,1.147c0.677-0.51,0.911-0.787,1.23-1.147H103.463z"/>
		<path fill="#FFFFFF" d="M115.674,54.865c0.508-0.149,1.445-0.443,3.202-1.569h-2.842V50.35h20.274v2.946h-2.715
			c1.209,0.827,2.479,1.42,3.181,1.719l-2.843,3.242c-2.543-1.524-3.84-3.03-4.749-4.195l1.42-0.766h-2.416v3.139
			c0,1.4-0.976,1.994-1.93,1.994h-4.117l-0.57-2.588c-1.209,1.169-3.158,2.166-3.714,2.438L115.674,54.865z M136.309,38.706v3.054
			h-6.022v0.51h5.153v4.627h-18.536V42.27h5.132v-0.51h-6.001v-3.054H136.309z M134.78,47.401v2.438h-17.196v-2.438H134.78z
			 M120.721,44.159v0.721h1.314v-0.721H120.721z M123.099,53.978c-0.237,0.361-0.448,0.655-0.765,1.037h1.248
			c0.258,0,0.597,0,0.597-0.614v-1.104h-2.543L123.099,53.978z M125.492,41.76v0.682h1.313V41.76H125.492z M125.492,44.159v0.721
			h1.313v-0.721H125.492z M130.286,44.159v0.721h1.375v-0.721H130.286z"/>
		<rect x="44.268" y="31.891" fill="#FFFFFF" width="92.702" height="3.574"/>
		<g>
			<path fill="#FFFFFF" d="M48.774,70.406v3.784h-3.615V62.121h4.315c1.923,0,4.092,0.988,4.092,4.109
				c0,2.984-2.045,4.176-3.989,4.176H48.774z M48.774,65.226v2.214h0.444c0.478,0,0.956-0.441,0.956-1.139
				c0-0.77-0.479-1.075-0.956-1.075H48.774z"/>
			<path fill="#FFFFFF" d="M59.222,61.781c3.103,0,5.044,2.475,5.044,6.342c0,3.87-1.941,6.409-5.044,6.409
				s-5.047-2.539-5.047-6.409C54.175,64.255,56.119,61.781,59.222,61.781z M59.222,70.85c0.885,0,1.296-1.158,1.296-2.728
				s-0.411-2.692-1.296-2.692c-0.886,0-1.294,1.123-1.294,2.692S58.336,70.85,59.222,70.85z"/>
			<path fill="#FFFFFF" d="M69.091,70.406v3.784h-3.615V62.121h4.313c1.927,0,4.091,0.988,4.091,4.109
				c0,2.984-2.045,4.176-3.988,4.176H69.091z M69.091,65.226v2.214h0.44c0.481,0,0.956-0.441,0.956-1.139
				c0-0.77-0.475-1.075-0.956-1.075H69.091z"/>
			<path fill="#FFFFFF" d="M76.844,74.191L73.98,62.121h4.225l1.093,7.62h0.051l1.057-7.62h4.04l-2.93,12.069H76.844z"/>
			<path fill="#FFFFFF" d="M89.609,61.781c3.101,0,5.045,2.475,5.045,6.342c0,3.87-1.944,6.409-5.045,6.409
				c-3.104,0-5.046-2.539-5.046-6.409C84.563,64.255,86.505,61.781,89.609,61.781z M89.609,70.85c0.885,0,1.296-1.158,1.296-2.728
				s-0.411-2.692-1.296-2.692c-0.888,0-1.294,1.123-1.294,2.692S88.722,70.85,89.609,70.85z"/>
			<path fill="#FFFFFF" d="M100.245,74.191h-3.647V65.26h-2.13v-3.139h7.907v3.139h-2.13V74.191z"/>
			<path fill="#FFFFFF" d="M103.171,62.121h6.445v3.259h-2.915v1.207h2.644v3.017h-2.644v1.279h3.138v3.308h-6.668V62.121z"/>
			<path fill="#FFFFFF" d="M110.877,72.417c0-1.057,0.751-1.959,1.845-1.959c1.087,0,1.837,0.902,1.837,1.959
				c0,1.094-0.75,1.944-1.837,1.944C111.628,74.362,110.877,73.511,110.877,72.417z"/>
			<path fill="#FFFFFF" d="M121.395,69.57h-1.639v4.621h-3.682V62.121h3.682v4.126h1.639v-4.126h3.682v12.069h-3.682V69.57z"/>
			<path fill="#FFFFFF" d="M130.529,68.94h-0.067v5.251h-3.704V62.121h3.704v4.755h0.084l1.67-4.755h4.09l-2.471,5.472l2.61,6.598
				h-4.229L130.529,68.94z"/>
		</g>
	</g>
	<g>
		<path fill="#231F20" d="M58.698,21.575c0,4.92-3.215,7.547-7.128,7.547c-3.887,0-7.156-2.488-7.156-7.408
			c0-2.712,0.895-4.752,1.901-6.542l3.493-6.289h7.018l-3.663,6.149C56.211,15.034,58.698,17.383,58.698,21.575z M50.201,21.519
			c0,1.426,0.586,2.517,1.397,2.517c0.838,0,1.426-1.091,1.426-2.517s-0.588-2.46-1.426-2.46
			C50.787,19.059,50.201,20.094,50.201,21.519z"/>
		<path fill="#231F20" d="M59.846,25.768c0-1.731,1.229-3.214,3.02-3.214c1.788,0,3.019,1.483,3.019,3.214
			c0,1.789-1.23,3.187-3.019,3.187C61.075,28.955,59.846,27.557,59.846,25.768z"/>
		<path fill="#231F20" d="M67.617,23.365l6.372-6.402c0.644-0.671,1.203-1.481,1.203-2.18c0-0.643-0.336-1.118-1.006-1.118
			c-0.783,0-1.342,0.782-1.342,2.236l-5.676-0.503c0.42-4.696,3.327-6.961,7.128-6.961c3.998,0,6.738,2.293,6.738,6.375
			c0,2.599-1.594,4.5-2.908,5.73l-3.13,2.908h5.786v5.227H67.617V23.365z"/>
		<path fill="#231F20" d="M82.21,18.78c0-4.333,1.229-10.344,7.212-10.344c5.981,0,7.212,6.01,7.212,10.344
			c0,4.333-1.23,10.343-7.212,10.343C83.439,29.123,82.21,23.113,82.21,18.78z M88.192,18.78c0,2.488,0.251,4.948,1.229,4.948
			c0.95,0,1.201-2.46,1.201-4.948c0-2.404-0.251-4.949-1.201-4.949C88.443,13.831,88.192,16.376,88.192,18.78z"/>
		<path fill="#231F20" d="M98.2,19.031h8.722v3.355H98.2V19.031z"/>
		<path fill="#231F20" d="M108.432,23.365l6.373-6.402c0.644-0.671,1.202-1.481,1.202-2.18c0-0.643-0.336-1.118-1.006-1.118
			c-0.783,0-1.342,0.782-1.342,2.236l-5.675-0.503c0.419-4.696,3.326-6.961,7.128-6.961c3.997,0,6.736,2.293,6.736,6.375
			c0,2.599-1.592,4.5-2.906,5.73l-3.131,2.908h5.787v5.227h-13.167V23.365z"/>
		<path fill="#231F20" d="M123.136,15.928c0-4.919,3.243-7.492,7.128-7.492c3.858,0,7.156,2.434,7.156,7.353
			c0,2.627-0.922,4.808-1.929,6.597l-3.494,6.29h-6.988l3.719-6.262C125.68,22.413,123.136,20.122,123.136,15.928z M131.633,15.957
			c0-1.426-0.587-2.516-1.396-2.516c-0.839,0-1.426,1.09-1.426,2.516c0,1.426,0.587,2.46,1.426,2.46
			C131.046,18.417,131.633,17.383,131.633,15.957z"/>
	</g>
</g>
</svg>
