<?xml version="1.0" encoding="utf-8"?>
<!-- Generator: Adobe Illustrator 16.0.0, SVG Export Plug-In . SVG Version: 6.00 Build 0)  -->
<!DOCTYPE svg PUBLIC "-//W3C//DTD SVG 1.1//EN" "http://www.w3.org/Graphics/SVG/1.1/DTD/svg11.dtd">
<svg version="1.1" id="Layer_1" xmlns="http://www.w3.org/2000/svg" xmlns:xlink="http://www.w3.org/1999/xlink" x="0px" y="0px"
	 width="442.795px" height="88.285px" viewBox="0 0 442.795 88.285" enable-background="new 0 0 442.795 88.285"
	 xml:space="preserve">
<g>
	<g>
		<path fill="#FFFFFF" d="M15.519,77.637l0.771-0.88c0.105-0.125,0.197-0.215,0.305-0.215c0.143,0,0.268,0.108,0.395,0.215
			l1.344,1.113c0.107,0.088,0.215,0.215,0.215,0.321c0,0.323-0.699,0.593-1.074,0.735c-0.055,0.215-0.34,1.272-0.412,1.523h0.16
			l0.664-0.806c0.072-0.091,0.215-0.251,0.357-0.251c0.107,0,0.217,0.09,0.305,0.16l1.436,1.453
			c0.088,0.106,0.178,0.197,0.178,0.287c0,0.251-0.25,0.376-0.645,0.591c-0.807,4.465-1.146,6.275-5.18,6.239
			c-0.072-0.879-0.164-2.008-1.471-2.852c-0.109,0.055-0.252,0.108-0.467,0.108c-0.717,0-0.807-0.681-0.861-1.004
			c-0.18-1.309-0.645-2.044-0.967-2.366l0.145-0.145c0.715,0.109,2.902,0.826,2.902,2.26c0,0.215-0.072,0.592-0.377,0.896
			c0.932,0.126,1.453,0.145,1.598,0.145c0.932,0,1.236-0.287,1.469-0.878c0.125-0.323,0.484-1.722,0.592-3.408H8.761
			c-0.324,0.378-0.789,0.951-1.738,1.812c0.643,1.075,1.002,1.917,1.002,2.904c0,1.129-0.609,1.971-1.668,1.971
			c-0.59,0-1.271-0.376-1.271-1.129c0-0.43,0.107-0.609,0.717-1.47c0.555-0.789,0.807-1.398,0.879-1.991
			c-1.328,1.111-2.438,1.758-3.316,2.242l-0.127-0.144c1.4-1.255,4.07-4.159,5.773-9.591H6.284c-1.109,0-1.398,0.054-1.719,0.107
			l-0.287-0.628c1.146,0.09,2.295,0.09,2.33,0.09h2.527c0.521-1.919,0.664-2.833,0.629-3.944l3.494,0.824
			c0.252,0.054,0.377,0.18,0.377,0.287c0,0.323-0.467,0.448-0.932,0.574c-0.143,0.537-0.305,1.184-0.699,2.259h1.326l0.842-1.075
			c0.072-0.108,0.164-0.181,0.287-0.181c0.145,0,0.234,0.072,0.359,0.181l1.576,1.272c0.072,0.054,0.217,0.196,0.217,0.305
			c0,0.233-0.34,0.412-0.859,0.663c-0.055,0.215-0.289,1.202-0.342,1.417H15.519z M4.978,71.434
			c1.076,0.034,3.818,0.197,3.818,2.132c0,0.933-0.771,1.363-1.361,1.363c-0.736,0-0.861-0.34-1.256-1.434
			c-0.43-1.147-0.934-1.613-1.221-1.9L4.978,71.434z M8.454,82.405c1.578,0.735,2.602,1.451,2.602,2.688
			c0,0.896-0.629,1.362-1.273,1.362c-0.844,0-1.004-0.572-1.021-1.093c-0.02-0.754-0.037-2.062-0.467-2.852L8.454,82.405z
			 M14.532,80.45c0.125-0.448,0.537-2.043,0.592-2.384h-4.48c-0.646,1.184-1.059,1.739-1.543,2.384H14.532z M12.829,77.637
			c0.412-1.614,0.449-1.776,0.502-2.151h-1.488c-0.268,0.681-0.645,1.522-0.969,2.151H12.829z M13.187,81.4
			c0.701,0.126,2.744,0.466,2.744,1.865c0,0.591-0.467,1.093-1.004,1.093c-0.59,0-0.734-0.412-1.002-1.254
			c-0.055-0.145-0.359-1.005-0.826-1.543L13.187,81.4z"/>
		<path fill="#FFFFFF" d="M24.937,79.572c-0.609,0-1.309,0.072-1.631,0.108l-0.307-0.646c0.916,0.054,1.83,0.107,2.262,0.107
			l0.734-0.932c0.143-0.18,0.215-0.27,0.357-0.27c0.092,0,0.182,0.055,0.377,0.215l1.561,1.31c0.143,0.125,0.232,0.216,0.232,0.358
			c0,0.215-0.232,0.323-0.717,0.557v3.369c0.268,1.523,2.223,1.632,4.625,1.632c2.51,0,5.02-0.108,7.494-0.574l0.07,0.145
			c-0.625,0.663-1.092,1.29-1.344,2.831c-4.016,0.072-7.098,0-8.783-0.447c-0.396-0.107-2.098-0.573-2.529-2.779
			c-0.268,0.484-0.646,1.147-2.33,2.852c-0.09,0.466-0.127,0.645-0.395,0.645c-0.107,0-0.217-0.125-0.27-0.232l-1.594-2.762
			c0.895-0.054,1.701-0.251,2.58-0.555v-4.931H24.937z M23.88,71.792c2.707,0.16,4.393,1.255,4.393,2.67
			c0,0.665-0.395,1.435-1.221,1.435c-0.807,0-1.184-0.717-1.361-1.093c-0.592-1.22-0.934-1.938-1.883-2.886L23.88,71.792z
			 M35.802,74.643l1.111-1.256c0.09-0.089,0.18-0.215,0.305-0.215c0.09,0,0.215,0.091,0.357,0.179l1.902,1.238
			c0.143,0.088,0.195,0.196,0.195,0.287c0,0.179-0.16,0.197-0.268,0.197h-8.947c-0.949,0-1.236,0.018-1.666,0.106l-0.305-0.646
			c1.129,0.108,2.258,0.108,2.312,0.108H35.802z M34.958,76.722l0.969-1.183c0.072-0.091,0.162-0.233,0.27-0.233
			c0.09,0,0.25,0.125,0.377,0.197l1.793,1.165c0.09,0.054,0.195,0.161,0.195,0.287c0,0.144-0.105,0.197-0.268,0.197h-7.225
			c-0.969,0-1.256,0.019-1.686,0.106l-0.307-0.645c1.131,0.107,2.205,0.107,2.314,0.107H34.958z M34.993,78.802l0.951-1.237
			c0.072-0.09,0.162-0.233,0.287-0.233c0.09,0,0.232,0.125,0.359,0.197l1.846,1.22c0.072,0.036,0.197,0.143,0.197,0.286
			c0,0.18-0.178,0.198-0.287,0.198h-7.277c-0.951,0-1.238,0.018-1.668,0.089l-0.305-0.627c1.094,0.09,2.15,0.107,2.295,0.107H34.993
			z M34.888,72.563l0.844-1.184c0.07-0.108,0.195-0.233,0.303-0.233c0.072,0,0.27,0.125,0.357,0.179l2.01,1.184
			c0.072,0.055,0.197,0.161,0.197,0.287c0,0.179-0.162,0.197-0.27,0.197h-7.117c-0.951,0-1.256,0.036-1.668,0.106l-0.303-0.646
			c0.643,0.072,1.629,0.109,2.293,0.109H34.888z M35.28,80.827l0.771-1.004c0.092-0.107,0.215-0.251,0.377-0.251
			c0.145,0,0.25,0.09,0.43,0.215l1.508,1.022c0.143,0.089,0.248,0.179,0.248,0.322c0,0.197-0.158,0.323-0.77,0.646
			c0,0.268,0.037,1.415,0.037,1.666c0,0.521-0.02,0.844-0.611,1.165c-0.412,0.216-1.004,0.359-1.434,0.359
			c-0.412,0-0.52-0.233-0.52-0.717v-0.359h-3.227c0,0.215-0.02,0.43-0.252,0.61c-0.395,0.285-1.182,0.537-1.721,0.537
			c-0.609,0-0.629-0.412-0.629-0.627c0-0.233,0.092-2.295,0.092-2.726c0-1.057-0.072-1.595-0.109-1.847l2.672,0.986H35.28z
			 M32.091,81.258v2.204h3.227v-2.204H32.091z"/>
		<path fill="#FFFFFF" d="M54.901,72.275l0.896-0.95c0.072-0.09,0.197-0.215,0.322-0.215c0.127,0,0.215,0.072,0.377,0.179
			l1.668,1.22c0.16,0.125,0.268,0.215,0.268,0.34c0,0.198-0.072,0.251-0.68,0.61c0,0.591,0.033,3.173,0.033,3.693
			c0,0.412,0,0.681-1.109,1.003c0.053,0.036,0.053,0.055,0.195,0.162l1.705,1.345c0.105,0.071,0.178,0.179,0.178,0.287
			c0,0.179-0.143,0.197-0.268,0.197h-6.15v2.348h3.639l0.934-1.506c0.09-0.143,0.18-0.215,0.287-0.215
			c0.072,0,0.143,0.019,0.342,0.179l1.791,1.489c0.145,0.125,0.18,0.196,0.18,0.286c0,0.162-0.107,0.197-0.27,0.197H44.755
			c-1.094,0-1.416,0.053-1.721,0.107l-0.287-0.627c0.664,0.054,1.631,0.089,2.33,0.089h4.68v-2.348h-3.783
			c-1.111,0-1.416,0.053-1.721,0.106l-0.287-0.645c0.771,0.072,1.559,0.107,2.33,0.107h3.461v-2.188h-2.672
			c0,0.359-0.07,0.521-0.287,0.682c-0.268,0.179-1.059,0.43-1.648,0.43c-0.646,0-0.646-0.484-0.646-0.77
			c0-0.539,0.09-2.888,0.09-3.372c0-1.666-0.09-2.635-0.145-3.155l2.941,0.933H54.901z M46.278,83.462
			c0.16,0.557,0.287,1.059,0.287,1.668c0,0.27-0.055,2.797-2.027,2.797c-0.805,0-1.326-0.592-1.326-1.129
			c0-0.574,0.27-0.789,1.201-1.453c0.627-0.447,1.416-1.057,1.686-1.883H46.278z M47.085,72.706v0.699l0.107-0.125
			c2.188,0.519,2.547,1.577,2.547,2.15c0,0.61-0.449,1.184-1.113,1.184c-0.879,0-0.932-0.699-0.984-1.523
			c-0.037-0.484-0.215-1.256-0.557-1.668v3.676h2.672v-4.393H47.085z M47.874,83.534c1.471,0.573,2.869,1.686,2.869,2.904
			c0,0.986-0.789,1.398-1.398,1.398c-1.113,0-1.113-0.86-1.113-1.309c0-1.022,0-2.025-0.447-2.851L47.874,83.534z M51.298,83.57
			c1.111,0.27,3.371,1.094,3.371,2.85c0,0.754-0.432,1.381-1.236,1.381c-1.113,0-1.221-0.752-1.326-1.505
			c-0.127-0.933-0.359-1.848-0.916-2.601L51.298,83.57z M55.188,77.099v-2.08h-0.107c-0.861,0.807-1.418,1.184-2.582,1.828
			l-0.125-0.143c0.232-0.484,0.734-1.613,1.004-3.622l1.811,1.147v-1.523h-2.852v4.393H55.188z M56.247,78.336
			c0.016-0.019,0.016-0.036,0.07-0.091c-0.107,0.019-0.27,0.037-0.467,0.037c-0.645,0-0.645-0.233-0.662-0.754h-2.852v2.188h3.066
			L56.247,78.336z M54.739,83.589c1.328,0.143,4.375,0.932,4.375,2.922c0,1.004-0.754,1.309-1.309,1.309
			c-0.951,0-1.111-0.467-1.543-1.578c-0.357-0.95-0.805-1.883-1.613-2.51L54.739,83.589z"/>
		<path fill="#FFFFFF" d="M70.972,76.112l0.662-0.86c0.09-0.125,0.162-0.216,0.305-0.216c0.127,0,0.252,0.091,0.322,0.161
			l1.076,0.915l-0.197-0.395c0.592,0.072,1.398,0.09,1.561,0.09h0.377c0.018-0.447,0.09-2.438,0.09-2.851h-0.484
			c-0.127,0-0.699,0-1.166,0.108l-0.287-0.646c0.592,0.09,1.131,0.107,1.775,0.107l0.771-0.842c0.143-0.145,0.232-0.232,0.357-0.232
			s0.232,0.088,0.322,0.143l1.686,1.271c0.09,0.055,0.197,0.181,0.197,0.342c0,0.233-0.072,0.251-0.699,0.555
			c-0.053,1.417-0.215,7.602-0.287,8.875h0.072l0.629-1.686c0.035-0.088,0.07-0.232,0.232-0.232c0.125,0,0.215,0.09,0.268,0.215
			l0.826,1.632c0.053,0.126,0.125,0.232,0.125,0.305c0,0.179-0.16,0.197-0.27,0.197H63.782c-0.699,0-1.004,0.036-1.166,0.072
			l-0.285-0.574c0.59,0.054,1.326,0.054,1.434,0.071c-0.055-2.545-0.18-7.691-0.609-9.914l1.99,0.557
			c0.52-0.897,0.734-1.273,1.002-2.134l2.367,1.632c-0.018-0.611-0.035-0.79-0.178-1.614l2.742,0.503
			c0.125,0.018,0.34,0.07,0.34,0.251c0,0.215-0.357,0.376-0.557,0.448v1.396h0.271l0.752-1.182c0.053-0.09,0.125-0.215,0.27-0.215
			c0.105,0,0.232,0.106,0.322,0.197l1.254,1.165c0.018,0.018,0.145,0.143,0.145,0.268c0,0.198-0.127,0.216-0.27,0.216h-2.744
			c0,1.148,0,1.273,0.018,1.9H70.972z M62.401,88.106c2.008-1.256,3.871-3.281,4.572-4.859l3.012,1.345
			c0.125,0.054,0.287,0.144,0.287,0.323c0,0.27-0.359,0.287-0.986,0.34c-1.99,1.632-4.967,2.708-6.812,3.03L62.401,88.106z
			 M68.409,76.202c0.016,0.018,0.053,0.054,0.07,0.072c0.035-0.414,0.053-0.665,0.053-2.869c-0.16-0.019-0.195-0.019-0.357-0.036
			c-0.844,0.306-1.291,0.43-2.188,0.681l0.072,2.188h0.143l0.664-1.13c0.053-0.107,0.145-0.232,0.268-0.232
			c0.125,0,0.252,0.125,0.324,0.215L68.409,76.202z M70.845,76.542c-0.16,0.342-0.984,0.592-1.611,0.592
			c-0.719,0-0.754-0.305-0.771-0.483c-0.053,0.018-0.072,0.018-0.18,0.018h-2.205c0.037,1.272,0.037,1.398,0.07,2.582h0.145
			l0.627-1.147c0.037-0.072,0.109-0.215,0.25-0.215c0.145,0,0.271,0.143,0.342,0.215l0.969,1.111l0.035,0.036
			c0.018-1.22-0.072-1.579-0.16-1.954l2.15,0.556c0.09,0.019,0.27,0.071,0.27,0.233c0,0.179-0.287,0.304-0.484,0.394
			c0,0.412,0.035,2.456,0.035,2.922c0,0.808-0.986,0.86-1.361,0.86c-0.432,0-0.502-0.179-0.502-0.573
			c0-0.09,0.035-1.828,0.035-2.025c-0.055,0.019-0.088,0.019-0.143,0.019h-2.207c0.02,0.699,0.072,2.33,0.092,2.957h4.641v-6.096
			H70.845z M71.634,83.57c2.922-0.036,6.615,1.039,6.615,3.03c0,0.824-0.662,1.434-1.541,1.434c-0.682,0-1.021-0.377-1.488-1.039
			c-1.166-1.668-2.492-2.564-3.639-3.264L71.634,83.57z M74.61,76.238c-0.322,0-0.752,0.036-1.039,0.089
			c0.215,0.197,0.305,0.27,0.305,0.412c0,0.198-0.18,0.305-0.646,0.538v1.739c0.467,0.053,1.166,0.09,1.416,0.09h0.34
			c0.02-0.718,0.055-1.901,0.092-2.868H74.61z M74.86,82.638c0.02-0.447,0.092-2.617,0.107-3.102h-0.412
			c-0.125,0-0.697,0-1.164,0.108l-0.162-0.378v3.371H74.86z"/>
		<path fill="#FFFFFF" d="M93.745,74.876l0.916-1.166c0.107-0.145,0.178-0.232,0.303-0.232c0.107,0,0.199,0.053,0.377,0.215
			l1.973,1.649c0.107,0.089,0.197,0.179,0.197,0.286c0,0.197-0.537,0.538-0.771,0.681c0,1.614,0.072,8.713,0.072,10.166
			c0,0.645-0.145,0.878-0.52,1.093c-0.449,0.233-1.311,0.396-1.686,0.396c-0.664,0-0.664-0.181-0.664-1.255v-0.125h-7.529
			c0,0.466,0,0.608-0.162,0.806c-0.357,0.448-1.434,0.663-1.936,0.663c-0.734,0-0.789-0.322-0.789-0.699
			c0-0.07,0.018-0.215,0.018-0.286c0.055-0.808,0.072-4.661,0.072-6.023c0-6.097-0.018-6.275-0.125-7.297l3.209,1.13h1.471
			c0.18-2.134,0.215-2.618,0.18-3.657l4.016,0.842c0.178,0.036,0.34,0.072,0.34,0.251c0,0.287-0.592,0.431-1.039,0.537
			c-0.609,0.61-1.293,1.273-2.295,2.027H93.745z M86.413,75.306v4.983h7.529v-4.983H86.413z M86.413,80.72v5.432h7.529V80.72H86.413
			z"/>
		<path fill="#FFFFFF" d="M101.874,82.512c3.441,0.503,4.715,2.044,4.715,3.281c0,1.041-0.789,1.596-1.596,1.596
			c-0.951,0-1.309-0.646-1.543-1.362c-0.537-1.596-0.734-2.152-1.703-3.245L101.874,82.512z"/>
		<path fill="#FFFFFF" d="M123.964,71.846c0.232,0.036,0.357,0.106,0.357,0.287c0,0.233-0.141,0.321-0.697,0.627v2.331h1.201
			l0.949-1.668c0.037-0.072,0.127-0.232,0.27-0.232c0.107,0,0.232,0.107,0.342,0.215l1.756,1.631c0.127,0.125,0.18,0.161,0.18,0.287
			c0,0.162-0.125,0.197-0.27,0.197h-4.428v3.298h0.969l0.949-1.595c0.09-0.144,0.178-0.233,0.27-0.233
			c0.07,0,0.162,0.018,0.34,0.198l1.721,1.577c0.107,0.107,0.18,0.179,0.18,0.286c0,0.198-0.195,0.198-0.268,0.198h-4.143
			l0.018,3.459h1.273l1.021-1.702c0.055-0.108,0.145-0.233,0.287-0.233c0.072,0,0.18,0.072,0.322,0.197l1.883,1.686
			c0.125,0.106,0.197,0.179,0.197,0.286c0,0.18-0.197,0.198-0.287,0.198h-4.697c0.02,0.555,0.055,3.028,0.055,3.53
			c0,0.503-0.072,0.718-0.395,0.933c-0.359,0.251-1.129,0.503-1.828,0.503c-0.754,0-0.826-0.27-0.826-0.664
			c0-0.107,0.107-3.012,0.107-3.281c0-0.196,0.02-0.842,0.072-3.406c-0.25,0.162-0.914,0.574-1.973,1.094
			c-0.107,0.844-0.395,2.421-1.469,3.604c-1.436,1.596-3.514,2.348-5.701,2.653v-0.161c3.334-1.507,3.998-3.497,4.303-4.787
			c-0.844,0.34-1.758,0.716-2.582,1.003c-0.143,0.467-0.197,0.574-0.43,0.574c-0.145,0-0.197-0.107-0.27-0.269l-1.256-3.12
			c0.234,0.036,0.574,0.036,0.879,0.036c0.592,0,2.762-0.125,3.873-0.197c0.072-1.505,0.072-2.276,0.072-2.652h-1.686
			c-1.129,0-1.451,0.053-1.74,0.106l-0.285-0.645c0.77,0.071,1.559,0.107,2.348,0.107h1.363c0-0.413-0.037-2.224-0.037-2.582h-2.348
			c-1.041,0-1.346,0.036-1.721,0.107l-0.287-0.646c0.771,0.072,1.541,0.108,2.33,0.108h2.008c-0.035-2.225-0.09-2.852-0.34-3.693
			l3.459,0.663c0.252,0.054,0.395,0.106,0.395,0.287c0,0.251-0.178,0.358-0.734,0.609c0,6.06,0,6.724-0.072,7.96
			c0.859-0.09,1.471-0.216,1.9-0.305c0.037-2.851,0.037-3.174,0.037-3.837c0-1.452,0-4.375-0.377-5.522L123.964,71.846z"/>
		<path fill="#FFFFFF" d="M139.927,76.112l0.662-0.86c0.09-0.125,0.162-0.216,0.307-0.216c0.125,0,0.25,0.091,0.322,0.161
			l1.076,0.915l-0.199-0.395c0.594,0.072,1.398,0.09,1.561,0.09h0.377c0.018-0.447,0.09-2.438,0.09-2.851h-0.484
			c-0.125,0-0.699,0-1.166,0.108l-0.285-0.646c0.59,0.09,1.129,0.107,1.773,0.107l0.77-0.842c0.145-0.145,0.234-0.232,0.359-0.232
			s0.234,0.088,0.324,0.143l1.684,1.271c0.09,0.055,0.199,0.181,0.199,0.342c0,0.233-0.072,0.251-0.701,0.555
			c-0.053,1.417-0.213,7.602-0.285,8.875h0.072l0.627-1.686c0.033-0.088,0.07-0.232,0.232-0.232c0.125,0,0.215,0.09,0.268,0.215
			l0.826,1.632c0.053,0.126,0.125,0.232,0.125,0.305c0,0.179-0.162,0.197-0.268,0.197h-15.455c-0.699,0-1.004,0.036-1.166,0.072
			l-0.285-0.574c0.59,0.054,1.326,0.054,1.434,0.071c-0.053-2.545-0.18-7.691-0.609-9.914l1.99,0.557
			c0.52-0.897,0.734-1.273,1.002-2.134l2.367,1.632c-0.018-0.611-0.035-0.79-0.18-1.614l2.744,0.503
			c0.125,0.018,0.342,0.07,0.342,0.251c0,0.215-0.359,0.376-0.557,0.448v1.396h0.268l0.754-1.182
			c0.055-0.09,0.125-0.215,0.268-0.215c0.109,0,0.234,0.106,0.324,0.197l1.256,1.165c0.018,0.018,0.143,0.143,0.143,0.268
			c0,0.198-0.125,0.216-0.27,0.216h-2.742c0,1.148,0,1.273,0.018,1.9H139.927z M131.356,88.106c2.008-1.256,3.873-3.281,4.572-4.859
			l3.012,1.345c0.127,0.054,0.285,0.144,0.285,0.323c0,0.27-0.357,0.287-0.984,0.34c-1.99,1.632-4.967,2.708-6.812,3.03
			L131.356,88.106z M137.362,76.202c0.018,0.018,0.053,0.054,0.072,0.072c0.035-0.414,0.053-0.665,0.053-2.869
			c-0.16-0.019-0.197-0.019-0.357-0.036c-0.842,0.306-1.291,0.43-2.188,0.681l0.072,2.188h0.143l0.664-1.13
			c0.055-0.107,0.143-0.232,0.268-0.232c0.127,0,0.252,0.125,0.324,0.215L137.362,76.202z M139.8,76.542
			c-0.16,0.342-0.986,0.592-1.613,0.592c-0.717,0-0.752-0.305-0.771-0.483c-0.053,0.018-0.07,0.018-0.178,0.018h-2.205
			c0.035,1.272,0.035,1.398,0.07,2.582h0.145l0.629-1.147c0.035-0.072,0.107-0.215,0.25-0.215c0.145,0,0.27,0.143,0.34,0.215
			l0.969,1.111l0.035,0.036c0.018-1.22-0.072-1.579-0.16-1.954l2.15,0.556c0.092,0.019,0.27,0.071,0.27,0.233
			c0,0.179-0.287,0.304-0.484,0.394c0,0.412,0.035,2.456,0.035,2.922c0,0.808-0.986,0.86-1.361,0.86
			c-0.432,0-0.504-0.179-0.504-0.573c0-0.09,0.037-1.828,0.037-2.025c-0.055,0.019-0.09,0.019-0.143,0.019h-2.207
			c0.018,0.699,0.072,2.33,0.09,2.957h4.645v-6.096H139.8z M140.589,83.57c2.924-0.036,6.617,1.039,6.617,3.03
			c0,0.824-0.664,1.434-1.543,1.434c-0.68,0-1.021-0.377-1.488-1.039c-1.166-1.668-2.492-2.564-3.639-3.264L140.589,83.57z
			 M143.565,76.238c-0.322,0-0.752,0.036-1.039,0.089c0.215,0.197,0.305,0.27,0.305,0.412c0,0.198-0.18,0.305-0.645,0.538v1.739
			c0.465,0.053,1.164,0.09,1.416,0.09h0.34c0.018-0.718,0.055-1.901,0.09-2.868H143.565z M143.815,82.638
			c0.018-0.447,0.09-2.617,0.109-3.102h-0.412c-0.127,0-0.699,0-1.166,0.108l-0.16-0.378v3.371H143.815z"/>
		<path fill="#FFFFFF" d="M161.124,79.662V82.1h1.9l1.021-1.577c0.125-0.179,0.195-0.233,0.287-0.233c0.107,0,0.18,0.072,0.34,0.197
			l1.811,1.577c0.09,0.072,0.197,0.162,0.197,0.27c0,0.179-0.178,0.197-0.287,0.197h-5.27v2.617c1.666,0.037,5.055-0.018,7.01-0.538
			v0.145c-1.238,1.236-1.291,2.204-1.326,3.137c-0.574,0.055-1.096,0.055-1.525,0.055c-5.701,0-8.084-0.808-9.322-3.479
			c-0.484,0.771-1.471,2.295-4.785,3.729l-0.092-0.162c3.191-3.03,3.119-7.439,3.102-7.87l3.426,0.985
			c0.213,0.055,0.322,0.162,0.322,0.306c0,0.269-0.09,0.305-0.842,0.591c-0.145,0.413-0.324,0.914-0.771,1.794
			c0.34,0.286,1.02,0.752,2.17,1.039v-5.217h-5.184c-1.111,0-1.379,0.054-1.719,0.106l-0.307-0.627
			c1.166,0.091,2.295,0.091,2.35,0.091h10.453l1.145-1.543c0.072-0.106,0.164-0.215,0.287-0.215c0.107,0,0.217,0.09,0.342,0.196
			l1.918,1.525c0.055,0.054,0.18,0.143,0.18,0.269c0,0.197-0.18,0.197-0.27,0.197H161.124z M156.569,77.583
			c0.018,0.196,0.037,0.483-0.303,0.717c-0.467,0.322-1.508,0.376-1.633,0.376c-0.734,0-0.824-0.34-0.824-0.718
			c0-0.357,0.09-2.365,0.09-2.814c0-2.438-0.09-3.101-0.199-3.782l3.102,0.933h5.523l0.699-0.969
			c0.053-0.072,0.16-0.197,0.285-0.197c0.127,0,0.252,0.072,0.432,0.197l1.99,1.256c0.107,0.07,0.25,0.179,0.25,0.357
			c0,0.216-0.197,0.395-0.859,0.754c0.016,0.537,0.053,2.85,0.053,3.334c0,0.412-0.053,0.682-0.467,0.914
			c-0.592,0.323-1.199,0.412-1.559,0.412c-0.682,0-0.719-0.286-0.719-0.77H156.569z M156.552,72.724v1.883h5.879v-1.883H156.552z
			 M162.431,77.152v-2.116h-5.879v2.116H162.431z"/>
		<path fill="#FFFFFF" d="M171.491,82.512c3.443,0.503,4.717,2.044,4.717,3.281c0,1.041-0.789,1.596-1.596,1.596
			c-0.951,0-1.311-0.646-1.541-1.362c-0.539-1.596-0.736-2.152-1.705-3.245L171.491,82.512z"/>
		<path fill="#FFFFFF" d="M183.274,83.982c-0.986,0-1.326,0.036-1.721,0.106l-0.287-0.645c1.004,0.09,2.025,0.108,2.33,0.108h10.848
			l0.986-1.542c0.053-0.09,0.178-0.216,0.287-0.216c0.107,0,0.215,0.09,0.34,0.181l1.883,1.522c0.09,0.072,0.18,0.18,0.18,0.27
			c0,0.197-0.162,0.215-0.271,0.215h-10.916l2.367,1.29c0.16,0.091,0.268,0.162,0.268,0.306c0,0.34-0.824,0.287-1.021,0.287
			c-1.918,1.075-4.393,2.044-7.189,2.295l-0.018-0.145c0.717-0.34,3.174-1.523,4.967-4.033H183.274z M186.86,82.028
			c0,0.322-0.053,0.449-0.43,0.646c-0.467,0.268-0.986,0.357-1.346,0.357c-0.842,0-0.842-0.323-0.842-0.717
			c0-0.646,0.072-3.497,0.072-4.07c0-0.537,0-2.725-0.127-3.747l2.977,0.896h1.094v-1.648h-4.535c-0.986,0-1.326,0.035-1.721,0.107
			l-0.287-0.628c1.002,0.09,2.043,0.09,2.33,0.09h4.213c-0.018-1.523-0.018-1.685-0.162-2.312l3.176,0.771
			c0.195,0.054,0.375,0.09,0.375,0.287c0,0.27-0.467,0.431-0.701,0.503v0.752h3.068l0.896-1.452c0.053-0.09,0.178-0.215,0.285-0.215
			c0.109,0,0.252,0.144,0.34,0.197l1.938,1.435c0.055,0.035,0.18,0.143,0.18,0.268c0,0.198-0.18,0.198-0.27,0.198h-6.438v1.648
			h1.275l0.807-0.914c0.088-0.106,0.25-0.286,0.357-0.286c0.109,0,0.252,0.125,0.377,0.215l1.648,1.147
			c0.145,0.089,0.307,0.269,0.307,0.395c0,0.287-0.594,0.556-0.771,0.646c-0.018,0.825,0.053,5.091-0.018,5.288
			c-0.145,0.484-1.221,0.914-1.938,0.914c-0.555,0-0.646-0.196-0.646-0.771H186.86z M186.86,75.825v1.506h5.504v-1.506H186.86z
			 M186.86,77.762v1.613h5.504v-1.613H186.86z M192.364,81.598v-1.792h-5.504v1.792H192.364z M190.231,84.216
			c2.689,0.09,6.92,0.448,6.92,2.546c0,0.717-0.502,1.345-1.361,1.345c-0.826,0-1.256-0.449-2.422-1.632
			c-0.896-0.915-1.99-1.632-3.174-2.116L190.231,84.216z"/>
		<path fill="#FFFFFF" d="M209.544,76.112l0.666-0.86c0.09-0.125,0.16-0.216,0.303-0.216c0.127,0,0.252,0.091,0.324,0.161
			l1.074,0.915l-0.197-0.395c0.592,0.072,1.398,0.09,1.561,0.09h0.375c0.02-0.447,0.09-2.438,0.09-2.851h-0.482
			c-0.125,0-0.699,0-1.164,0.108l-0.287-0.646c0.59,0.09,1.129,0.107,1.773,0.107l0.771-0.842c0.143-0.145,0.232-0.232,0.357-0.232
			c0.127,0,0.234,0.088,0.322,0.143l1.688,1.271c0.088,0.055,0.195,0.181,0.195,0.342c0,0.233-0.07,0.251-0.697,0.555
			c-0.055,1.417-0.217,7.602-0.287,8.875h0.07l0.629-1.686c0.035-0.088,0.072-0.232,0.232-0.232c0.125,0,0.215,0.09,0.27,0.215
			l0.824,1.632c0.053,0.126,0.125,0.232,0.125,0.305c0,0.179-0.162,0.197-0.27,0.197h-15.453c-0.699,0-1.004,0.036-1.166,0.072
			l-0.287-0.574c0.594,0.054,1.326,0.054,1.436,0.071c-0.055-2.545-0.18-7.691-0.611-9.914l1.992,0.557
			c0.52-0.897,0.734-1.273,1.004-2.134l2.367,1.632c-0.018-0.611-0.037-0.79-0.182-1.614l2.744,0.503
			c0.125,0.018,0.34,0.07,0.34,0.251c0,0.215-0.357,0.376-0.555,0.448v1.396h0.268l0.754-1.182c0.053-0.09,0.125-0.215,0.27-0.215
			c0.107,0,0.232,0.106,0.322,0.197l1.254,1.165c0.018,0.018,0.145,0.143,0.145,0.268c0,0.198-0.127,0.216-0.27,0.216h-2.742
			c0,1.148,0,1.273,0.018,1.9H209.544z M200.976,88.106c2.008-1.256,3.873-3.281,4.572-4.859l3.012,1.345
			c0.125,0.054,0.287,0.144,0.287,0.323c0,0.27-0.359,0.287-0.986,0.34c-1.99,1.632-4.965,2.708-6.812,3.03L200.976,88.106z
			 M206.981,76.202c0.02,0.018,0.055,0.054,0.072,0.072c0.037-0.414,0.053-0.665,0.053-2.869c-0.16-0.019-0.197-0.019-0.357-0.036
			c-0.844,0.306-1.291,0.43-2.188,0.681l0.072,2.188h0.145l0.66-1.13c0.055-0.107,0.145-0.232,0.271-0.232
			c0.125,0,0.25,0.125,0.322,0.215L206.981,76.202z M209.419,76.542c-0.16,0.342-0.984,0.592-1.613,0.592
			c-0.715,0-0.752-0.305-0.77-0.483c-0.055,0.018-0.072,0.018-0.18,0.018h-2.205c0.035,1.272,0.035,1.398,0.072,2.582h0.143
			l0.627-1.147c0.037-0.072,0.109-0.215,0.252-0.215s0.27,0.143,0.34,0.215l0.969,1.111l0.037,0.036
			c0.016-1.22-0.072-1.579-0.162-1.954l2.15,0.556c0.09,0.019,0.27,0.071,0.27,0.233c0,0.179-0.287,0.304-0.484,0.394
			c0,0.412,0.037,2.456,0.037,2.922c0,0.808-0.986,0.86-1.363,0.86c-0.432,0-0.502-0.179-0.502-0.573
			c0-0.09,0.037-1.828,0.037-2.025c-0.055,0.019-0.092,0.019-0.145,0.019h-2.205c0.018,0.699,0.072,2.33,0.088,2.957h4.645v-6.096
			H209.419z M210.21,83.57c2.922-0.036,6.615,1.039,6.615,3.03c0,0.824-0.664,1.434-1.543,1.434c-0.682,0-1.021-0.377-1.488-1.039
			c-1.166-1.668-2.492-2.564-3.639-3.264L210.21,83.57z M213.185,76.238c-0.322,0-0.752,0.036-1.039,0.089
			c0.215,0.197,0.305,0.27,0.305,0.412c0,0.198-0.18,0.305-0.645,0.538v1.739c0.465,0.053,1.164,0.09,1.414,0.09h0.342
			c0.018-0.718,0.055-1.901,0.088-2.868H213.185z M213.437,82.638c0.018-0.447,0.09-2.617,0.107-3.102h-0.412
			c-0.125,0-0.699,0-1.166,0.108l-0.16-0.378v3.371H213.437z"/>
		<path fill="#FFFFFF" d="M232.106,81.294c0.447,0.106,1.936,0.43,2.367,1.451c0.105-1.166,0.125-1.362,0.16-2.025h-6.311
			c-1.131,1.309-2.295,2.188-3.389,2.869v3.209c0,0.285-0.088,0.645-0.484,0.878c-0.484,0.287-1.004,0.394-1.451,0.394
			c-0.719,0-0.771-0.34-0.771-0.771c0-0.501,0.09-2.707,0.107-3.173c0.055-2.547,0.055-2.868,0.072-4.679
			c-0.736,0.896-1.219,1.308-1.633,1.666l-0.143-0.053c1.254-2.421,2.51-7.495,2.475-9.86l3.244,1.183
			c0.125,0.054,0.162,0.09,0.252,0.144c-0.234-0.574-0.43-0.825-0.629-1.074l0.09-0.181c2.852,0.466,3.191,1.542,3.191,2.062
			c0,0.61-0.502,1.328-1.363,1.328c-0.732,0-0.877-0.432-0.986-1.023c-0.053-0.357-0.125-0.591-0.248-0.95
			c-0.055,0.233-0.432,0.412-0.611,0.484c-0.232,0.557-0.539,1.22-1.381,2.833l0.592,0.215c0.145,0.055,0.342,0.125,0.342,0.287
			c0,0.215-0.449,0.465-0.646,0.592c-0.018,0.412-0.018,5.396-0.018,5.987c2.35-2.868,3.621-6.364,4.035-7.798h-1.328
			c-0.574,0-1.166,0.018-1.723,0.125l-0.303-0.646c0.787,0.072,1.561,0.09,2.348,0.09h1.131c0.125-0.377,0.627-2.098,0.627-3.819
			l3.119,0.754c0.322,0.071,0.359,0.269,0.359,0.322c0,0.216-0.287,0.358-0.771,0.609c-0.18,0.592-0.377,1.201-0.734,2.134h0.715
			l0.914-1.059c0.127-0.143,0.199-0.233,0.324-0.233c0.107,0,0.215,0.109,0.359,0.216l1.506,1.255
			c0.143,0.125,0.232,0.216,0.232,0.324c0,0.249-0.484,0.482-1.021,0.733c-0.037,0.181-0.055,0.251-0.197,0.95l0.432-0.447
			c0.07-0.072,0.195-0.162,0.303-0.162c0.127,0,0.252,0.107,0.377,0.233l1.004,1.13c0.072,0.09,0.162,0.232,0.162,0.357
			c0,0.306-0.807,0.682-1.186,0.861c-0.143,0.734-0.16,0.807-0.23,1.166l0.518-0.521c0.125-0.126,0.18-0.197,0.287-0.197
			c0.109,0,0.217,0.125,0.305,0.233l1.076,1.309c0.072,0.072,0.162,0.251,0.162,0.322c0,0.216-0.162,0.377-0.592,0.682
			c-0.43,5.719-1.973,5.935-4.625,6.096c0.035-1.272-0.521-2.42-1.543-3.049v-0.143c1.004,0.179,1.883,0.197,2.205,0.197
			c0.682,0,0.881-0.036,1.111-1.202c-0.16,0.216-0.357,0.306-0.627,0.306c-0.627,0-0.752-0.574-0.844-0.95
			c-0.23-1.058-0.5-1.435-0.752-1.829L232.106,81.294z M227.317,82.011c0.844,1.612,0.916,2.456,0.916,2.796
			c0,0.808-0.432,1.901-1.559,1.901c-0.789,0-1.221-0.574-1.221-1.094c0-0.412,0.18-0.646,0.754-1.398
			c0.77-1.022,0.879-1.704,0.969-2.205H227.317z M228.376,81.831c1.381,0.807,2.223,1.471,2.223,2.654
			c0,0.896-0.555,1.271-1.145,1.271c-0.863,0-0.881-0.591-0.898-1.075c-0.07-1.883-0.088-2.098-0.287-2.761L228.376,81.831z
			 M232.894,80.289c0.09-0.323,0.43-1.989,0.521-2.349h-3.156c-0.09,0.162-0.717,1.31-1.578,2.349H232.894z M230.296,81.579
			c0.715,0.287,2.385,0.951,2.385,2.313c0,0.521-0.359,1.022-0.986,1.022c-0.771,0-0.844-0.557-0.879-1.059
			c-0.09-1.164-0.377-1.738-0.574-2.133L230.296,81.579z M231.979,77.511c0.234-0.951,0.377-1.56,0.484-2.223h-0.914
			c-0.197,0.447-0.484,1.146-1.057,2.223H231.979z"/>
		<path fill="#FFFFFF" d="M255.095,75.682c0.18,0.054,0.359,0.144,0.359,0.306c0,0.179-0.537,0.376-0.879,0.502
			c-0.215,0.376-0.447,0.752-0.969,1.415c0.557,0.072,2.904,0.396,2.904,2.062c0,0.682-0.502,1.31-1.326,1.31
			s-0.969-0.396-1.309-1.344c-0.27-0.771-0.574-1.166-0.752-1.435c-0.197,0.232-0.986,1.129-2.045,1.936
			c1.92,2.224,4.123,3.156,6.273,3.693l-0.033,0.162c-1.166,0.788-1.561,1.146-1.955,2.813c-1.469-0.824-3.855-2.348-5.234-7.063
			c0.018,0.933,0.107,6.131,0.107,6.705c0,0.412-0.018,0.735-0.592,1.039c-0.484,0.27-1.182,0.324-1.453,0.324
			c-0.787,0-0.807-0.324-0.807-0.718c0-0.646,0.055-3.603,0.072-4.429c-1.326,1.346-3.801,3.424-6.885,4.178l-0.09-0.161
			c2.654-2.008,4.123-3.621,5.361-5.54c-0.502,0-0.914-0.179-1.057-1.075c-0.162-0.968-0.182-1.147-0.377-1.667
			c-1.74,2.366-3.262,3.227-3.908,3.584l-0.092-0.143c2.277-2.922,2.816-6.705,2.869-7.351l2.977,0.896
			c0.125,0.036,0.27,0.091,0.27,0.306c0,0.179-0.09,0.197-0.754,0.447c-0.25,0.484-0.467,0.896-0.877,1.542
			c0.572,0.108,1.703,0.359,2.15,1.237c0.162-0.359,0.322-0.753,0.467-1.129v-1.381c0-0.396-0.018-1.937-0.018-2.33h-4.949
			c-1.004,0-1.326,0.035-1.721,0.106l-0.287-0.627c0.611,0.054,1.684,0.09,2.33,0.09h4.627c-0.02-1.739-0.02-1.937-0.27-2.851
			l3.227,0.483c0.143,0.019,0.395,0.055,0.395,0.287c0,0.27-0.43,0.467-0.717,0.609v1.471h3.441l0.879-1.435
			c0.053-0.09,0.178-0.233,0.287-0.233c0.107,0,0.215,0.072,0.357,0.179l1.955,1.453c0.125,0.089,0.18,0.197,0.18,0.27
			c0,0.16-0.107,0.197-0.27,0.197h-6.83c-0.02,0.753-0.02,4.033-0.02,4.695c0.342,0.575,0.539,0.826,0.666,0.969
			c0.643-1.56,1.199-3.531,1.182-5.181L255.095,75.682z"/>
		<path fill="#FFFFFF" d="M264.407,76.076c0.053,0.018,0.268,0.09,0.268,0.269c0,0.09-0.072,0.18-0.143,0.233
			c-0.072,0.054-0.305,0.179-0.395,0.233c-0.037,1.613-0.018,10.039-0.037,10.184c-0.09,0.681-1.289,1.057-1.9,1.057
			c-0.143,0-0.77,0-0.77-0.663c0-0.215,0.018-0.681,0.127-4.895c0-0.071,0.018-1.094,0.033-3.513
			c-0.789,0.984-1.219,1.344-1.504,1.577l-0.164-0.072c1.023-2.295,2.295-6.669,2.35-9.412l3.227,1.398
			c0.127,0.054,0.234,0.108,0.234,0.215c0,0.108-0.162,0.395-0.771,0.412c-0.287,0.699-0.662,1.577-1.326,2.743L264.407,76.076z
			 M270.913,75.27c0.127-0.646,0.502-2.725,0.43-4.231l3.121,1.076c0.107,0.035,0.287,0.125,0.287,0.269
			c0,0.198-0.09,0.233-0.771,0.483c-0.215,0.521-0.592,1.562-1.326,2.959h1.469l0.789-1.56c0.037-0.089,0.145-0.216,0.287-0.216
			c0.127,0,0.252,0.108,0.322,0.197l1.416,1.525c0.072,0.088,0.164,0.179,0.164,0.269c0,0.215-0.182,0.215-0.27,0.215h-2.457
			l2.043,0.86c0.127,0.055,0.252,0.161,0.252,0.27c0,0.106-0.053,0.179-0.18,0.251c-0.055,0.034-0.357,0.179-0.447,0.215
			c-0.232,1.075-0.664,2.976-1.793,5.02c1.129,1.147,2.275,1.685,2.922,1.972v0.179c-0.482,0.359-1.469,1.112-1.738,3.103
			c-0.539-0.448-1.686-1.398-2.619-3.103c-1.701,2.027-3.674,2.798-4.805,3.191l-0.088-0.144c0.697-0.555,2.562-1.989,4.033-5.127
			c-0.252-0.807-0.734-2.492-0.682-4.876c-0.484,0.628-0.734,0.896-0.914,1.075l0.412,0.412c0.143,0.145,0.215,0.215,0.215,0.323
			c0,0.107-0.018,0.179-0.734,0.591c0,0.629,0.053,3.676,0.053,4.357c0,0.305-0.016,0.538-0.232,0.734
			c-0.285,0.252-0.879,0.467-1.416,0.467c-0.592,0-0.592-0.18-0.574-1.147h-0.932c0.018,0.197,0.055,0.771-0.037,1.039
			c-0.143,0.449-1.092,0.825-1.648,0.825c-0.574,0-0.592-0.394-0.592-0.734c0-0.592,0.053-3.497,0.053-4.143
			c0-1.416,0-2.6-0.178-3.459l1.613,0.662v-3.154h-0.502c-0.734,0-0.969,0.054-1.164,0.072l-0.287-0.574
			c0.607,0.054,1.236,0.072,1.953,0.072c0-2.904-0.107-3.712-0.359-4.285l2.994,0.52c0.145,0.018,0.379,0.072,0.379,0.251
			c0,0.251-0.467,0.483-0.666,0.574v2.94h0.127l0.572-1.238c0.055-0.106,0.145-0.215,0.252-0.215c0.162,0,0.27,0.108,0.34,0.197
			L270.913,75.27z M267.132,79.681v4.768h0.949v-4.768H267.132z M268.708,75.915v3.209l0.377-0.573
			c0.09-0.144,0.18-0.251,0.305-0.251c0.109,0,0.252,0.143,0.305,0.197l0.322,0.305c0.182-0.538,0.467-1.38,0.771-2.887H268.708z
			 M272.421,76.256c-0.287,0.483-0.412,0.716-0.807,1.327c0.412,1.811,0.914,2.761,1.146,3.154c0.609-2.295,0.627-3.675,0.627-4.481
			H272.421z"/>
		<path fill="#FFFFFF" d="M279.901,74.785c1.148,0.091,2.277,0.091,2.332,0.091h1.416l0.754-1.22
			c0.053-0.091,0.125-0.233,0.268-0.233c0.072,0,0.162,0.019,0.34,0.197l1.309,1.22c0.072,0.07,0.182,0.161,0.182,0.269
			c0,0.18-0.162,0.197-0.287,0.197h-4.303c-1.168,0-1.508,0.071-1.723,0.125L279.901,74.785z M283.774,81.866l0.629-0.896
			c0.07-0.106,0.16-0.197,0.305-0.197c0.125,0,0.213,0.054,0.303,0.144l1.203,1.04c0.053,0.054,0.195,0.179,0.195,0.304
			c0,0.162-0.143,0.251-0.502,0.521v1.758c0,0.179,0.055,1.72,0.055,1.811c0,0.933-1.166,1.075-1.488,1.075
			c-0.662,0-0.645-0.287-0.627-1.022h-1.021c0,0.09,0,0.735-0.018,0.825c-0.09,0.484-0.844,0.771-1.471,0.771
			c-0.557,0-0.752-0.179-0.752-0.807c0-0.521,0.053-2.778,0.053-3.227c0-1.256-0.018-1.632-0.107-2.958l2.367,0.859H283.774z
			 M288.991,77.35c-0.215,0-0.484,0.018-0.645,0.018c-0.52,0.484-0.896,0.752-1.166,0.933l2.312,0.734h2.797l0.646-0.698
			c0.107-0.108,0.195-0.217,0.268-0.217c0.127,0,0.18,0.036,0.43,0.198l1.633,1.094c0.143,0.089,0.232,0.197,0.232,0.287
			c0,0.215-0.412,0.43-0.592,0.52c0,0.413,0.02,2.475-0.018,2.581c-0.16,0.412-1.129,0.699-1.648,0.699
			c-0.771,0-0.754-0.357-0.734-0.735h-3.066c0,0.484,0,0.771-1.004,1.005c0.607,0.179,2.098,0.627,2.098,1.919
			c0,0.537-0.484,1.236-1.291,1.236c-0.824,0-0.914-0.467-1.059-1.236c-0.125-0.771-0.215-1.256-0.52-1.847
			c-0.574-0.072-0.609-0.306-0.609-0.718c0-0.447,0.053-2.457,0.053-2.869c0-1.165-0.035-1.559-0.07-1.864
			c-0.791,0.502-1.238,0.646-1.578,0.753l0.287,0.233c0.125,0.108,0.18,0.179,0.18,0.287c0,0.144-0.109,0.197-0.27,0.197h-4.105
			c-0.197,0-0.395,0.018-0.592,0.036l-0.27-0.521c0.18,0.019,0.664,0.054,1.039,0.054h1.398l0.684-1.165
			c0.053-0.09,0.141-0.215,0.285-0.215c0.09,0,0.127,0.036,0.322,0.196l0.879,0.754c0.861-0.88,1.488-1.686,2.152-2.852
			c-0.574-0.054-0.699-0.555-0.789-0.896c-0.215-0.915-0.342-1.13-0.789-1.668l0.072-0.143c0.77,0.018,1.846,0.143,2.367,0.806
			c0.268-0.77,0.34-1.182,0.412-1.56h-1.166c-0.664,0-0.914,0.055-1.166,0.108l-0.285-0.646c0.697,0.09,1.506,0.108,1.539,0.108
			h0.934l0.629-0.682c0.16-0.179,0.215-0.215,0.303-0.215c0.107,0,0.18,0.054,0.359,0.197l1.469,1.111
			c-0.125-0.627-0.16-0.95-0.213-1.309l0.16-0.072c0.342,0.735,0.664,1.327,1.201,2.044c0.322-0.717,0.537-1.487,0.662-2.169
			l2.189,1.345c0.088,0.055,0.16,0.161,0.16,0.251c0,0.215-0.285,0.197-0.697,0.179l-0.037,0.019l1.793,1.184
			c0.127,0.089,0.18,0.215,0.18,0.304c0,0.217-0.234,0.198-0.574,0.18c-0.27,0.125-1.434,0.664-1.668,0.771
			c1.076,0.825,1.918,1.04,2.385,1.165v0.18c-0.467,0.251-1.471,0.969-1.9,2.385c-0.609-0.484-1.164-0.986-1.793-1.774H288.991z
			 M283.165,72.599l0.771-1.131c0.125-0.196,0.197-0.232,0.27-0.232c0.105,0,0.178,0.036,0.34,0.198l1.219,1.111
			c0.125,0.106,0.18,0.179,0.18,0.287c0,0.179-0.145,0.197-0.27,0.197h-4.105c-0.197,0-0.359,0-0.609,0.036l-0.27-0.521
			c0.324,0.036,0.736,0.054,1.059,0.054H283.165z M283.2,77.171l0.736-1.202c0.053-0.09,0.125-0.215,0.27-0.215
			c0.088,0,0.16,0.054,0.322,0.197l1.254,1.165c0.107,0.107,0.18,0.197,0.18,0.27c0,0.16-0.107,0.215-0.27,0.215h-4.123
			c-0.215,0-0.412,0.018-0.609,0.036l-0.27-0.521c0.504,0.036,0.896,0.055,1.059,0.055H283.2z M282.825,82.297v3.657h1.039v-3.657
			H282.825z M293.421,87.191l0.914-1.471c0.088-0.124,0.16-0.215,0.285-0.215c0.162,0,0.27,0.126,0.342,0.197l1.613,1.435
			c0.125,0.126,0.18,0.197,0.18,0.287c0,0.161-0.143,0.197-0.27,0.197h-8.48c-0.984,0-1.326,0.035-1.721,0.107l-0.305-0.646
			c0.646,0.072,1.686,0.108,2.35,0.108h2.725c0.395-1.004,0.664-3.19,0.699-3.89l2.887,0.806c0.107,0.036,0.268,0.09,0.268,0.27
			c0,0.179-0.07,0.196-0.752,0.396c-1.131,1.344-2.115,2.062-2.654,2.419H293.421z M291.95,75.86
			c0.035-0.053,0.125-0.16,0.232-0.196c-0.25-0.556-0.465-1.22-0.699-2.295c-0.125,0.09-0.197,0.126-0.43,0.233
			c-0.896,1.811-1.756,2.814-2.24,3.316h2.348L291.95,75.86z M289.423,79.465v2.868h3.084v-2.868H289.423z M292.954,73.925
			c0.412,0.467,0.645,0.682,0.879,0.915c0.303-0.699,0.447-1.22,0.557-1.686C293.421,73.692,293.312,73.746,292.954,73.925z"/>
	</g>
	<g opacity="0.93">
		<path fill="#FFFFFF" d="M0,15.511c7.256-1.275,11.965-3.324,14.734-4.765H7.201V1.884h25.758
			c6.426,7.699,15.678,11.688,21.99,13.849l-4.154,10.636c-1.551-0.609-3.047-1.22-5.373-2.383v3.435H32.848v3.269h17.061v9.085
			H32.848v3.378h20.828V52.9H1.219v-9.749H22.49v-3.378H5.484v-9.085H22.49V27.42H10.137v-3.822
			c-2.215,1.107-4.266,1.883-6.15,2.604L0,15.511z M35.949,18.224c-4.043-3.045-6.369-5.372-8.252-7.422
			c-1.719,1.884-3.99,4.321-8.365,7.422H35.949z"/>
		<path fill="#FFFFFF" d="M60.922,42.984c1.771-0.11,2.66-0.11,3.877-0.276V2.327h47.25v18.999H96.43
			c0.109,1.164,0.164,1.829,0.275,2.771h17.227v10.247H98.811c1.883,5.983,3.988,7.645,5.041,7.645c1.551,0,4.764-4.044,6.037-7.035
			l5.373,11.134c-1.826,3.49-6.037,8.421-10.855,8.421c-3.934,0-7.701-3.269-9.363-4.986c-4.32-4.598-6.59-12.851-7.201-15.178
			H75.158v7.146c8.254-1.218,11.135-1.994,13.238-2.548v10.081c-3.102,0.997-19.166,4.376-26.311,5.098L60.922,42.984z
			 M75.158,11.189v2.16h26.256v-2.16H75.158z M85.959,24.097c-0.109-1.33-0.109-1.938-0.109-2.771H75.158v2.771H85.959z"/>
		<path fill="#FFFFFF" d="M171.197,24.982v9.805c-0.719,1.496-1.66,3.601-5.039,7.035c4.707,1.384,8.086,1.828,10.08,2.104
			l-4.875,10.636c-2.936-0.776-8.141-2.16-14.955-5.54c-7.201,3.768-12.408,4.653-15.068,5.152l-3.875-10.358v5.096
			c0,2.438-0.664,5.263-4.986,5.263h-7.977l-1.662-10.58h3.713c1.328,0,1.383-0.721,1.383-1.828V37.28
			c-1.551,0.443-2.438,0.664-4.32,1.107l-0.885-10.47c1.271-0.222,2.215-0.388,5.205-1.107v-7.367h-4.873V9.749h4.873V1.33h9.529
			v8.419h3.211v5.54c2.77-2.604,3.49-5.595,3.49-8.642V2.05h21.66v9.473c0,1.605,0.164,1.605,1.383,1.605
			c0.666,0,0.775-0.608,0.832-1.107c0.109-0.831,0.166-3.047,0.166-4.432l7.811,2.548c-0.277,10.47-1.828,13.129-6.426,13.129
			h-7.811c-2.824,0-5.594-0.332-5.594-5.595v-6.481h-2.383c-0.498,5.761-2.66,10.303-7.146,13.793H171.197z M145.107,24.982
			l-4.432-5.705v0.166h-3.211v4.819c1.383-0.388,2.049-0.555,3.211-0.997v9.915c-0.887,0.389-1.439,0.609-3.211,1.219v9.307
			c2.049-0.111,5.039-0.277,8.973-1.441c-2.215-1.993-3.436-3.379-4.598-4.708l5.15-2.77h-4.818v-9.805H145.107z M151.92,34.787
			c1.885,1.552,3.326,2.382,4.322,2.991c1.771-1.329,2.383-2.05,3.211-2.991H151.92z"/>
		<path fill="#FFFFFF" d="M182.709,44.979c1.33-0.388,3.768-1.163,8.363-4.099h-7.422v-7.7h52.957v7.7h-7.09
			c3.156,2.159,6.48,3.711,8.309,4.486l-7.424,8.475c-6.646-3.988-10.025-7.921-12.408-10.968l3.711-1.993h-6.314v8.197
			c0,3.656-2.547,5.208-5.041,5.208h-10.746l-1.494-6.758c-3.158,3.047-8.254,5.648-9.693,6.369L182.709,44.979z M236.607,2.77
			v7.977h-15.732v1.33h13.461v12.075h-48.414V12.076h13.406v-1.33H183.65V2.77H236.607z M232.617,25.48v6.37h-44.924v-6.37H232.617z
			 M195.893,17.006v1.884h3.436v-1.884H195.893z M202.096,42.652c-0.607,0.942-1.162,1.718-1.992,2.715h3.268
			c0.664,0,1.551,0,1.551-1.606v-2.88h-6.648L202.096,42.652z M208.357,10.746v1.773h3.434v-1.773H208.357z M208.357,17.006v1.884
			h3.434v-1.884H208.357z M220.875,17.006v1.884h3.602v-1.884H220.875z"/>
		<path fill="#FFFFFF" d="M258.531,22.934c-0.443,0.83-0.998,1.716-2.16,3.323V54.12h-9.25V36.615
			c-0.611,0.665-0.998,0.941-1.773,1.606l-1.553-13.683c3.822-2.77,6.76-5.926,9.086-10.081l4.377,2.382v-4.985h3.711
			c0.166-0.499,0.223-0.942,0.332-1.33h-3.104V4.653c-4.707,9.25-9.416,12.519-11.74,14.182l-2.605-10.691
			c2.383-1.884,4.543-4.433,6.037-7.146l9.141,1.993c-0.166,0.332-0.221,0.443-0.332,0.664h3.768l0.275-2.381h9.084
			c-0.164,0.997-0.221,1.329-0.387,2.381h10.082v8.698h1.385v4.209h14.457v9.75h-2.215v22.6c0,1.663-0.775,5.208-5.041,5.208h-7.201
			l-1.053-4.654h-3.822v4.654h-8.863v-4.654h-11.908v-8.031h1.273v-8.198h10.635v-1.33h-10.635V22.934z M281.52,20.163v11.743h-3.49
			v1.33h4.043v6.869h-4.043v1.329h4.875v2.548c2.271,0,2.494,0,2.494-1.772V26.312h-2.551v-7.478h-22.1
			c-0.168,0.332-0.332,0.886-0.611,1.328H281.52z M266.285,40.105v1.938h2.881v-1.938H266.285z M267.338,25.148v1.772h5.484v-1.772
			H267.338z M273.211,12.354v-1.829h-3.436c-0.277,1.054-0.332,1.386-0.498,1.829H273.211z M296.363,2.715v9.639h-12.85V2.715
			H296.363z"/>
		<path fill="#FFFFFF" d="M325.602,45.976v1.22c0,7.035-4.764,7.035-7.699,7.035h-9.141l-1.771-10.58h7.201
			c1.328,0,1.328-0.499,1.328-1.33v-3.103c-1.328,0.111-7.975,0.722-9.473,0.832l-0.664-11.356c2.547,0,5.873,0,10.137-0.166v-4.154
			h-10.025v-9.805h10.025v-1.661c-1.385,0.055-3.436,0.221-7.865,0.332l-2.271-10.026c10.137-0.166,16.729-0.775,24.318-2.492
			l3.211,10.357c-1.717,0.277-3.711,0.666-7.311,1.054v2.437h7.59c-0.057-1.993-0.279-11.521-0.223-13.626h10.635v4.652l6.537-4.652
			c3.324,3.156,5.871,5.815,7.865,8.641l-6.869,4.985h7.203v9.805h-8.143l5.871,2.881c-1.385,2.991-4.045,8.309-9.141,13.849
			c0.223,0.332,0.719,0.941,1.439,0.941c1.441,0,4.709-2.992,7.701-7.146l2.936,10.857c-0.887,1.552-4.932,8.365-11.244,8.365
			c-4.986,0-7.867-4.654-8.92-6.315c-1.883,1.329-4.043,2.715-8.086,4.985L325.602,45.976z M325.602,24.373v3.545
			c2.492-0.166,4.984-0.498,6.814-0.72v9.916c-2.271,0.387-4.211,0.72-6.814,1.052v4.764c5.096-2.049,8.143-4.099,9.473-4.985
			c-0.111-0.554-1.107-5.262-1.551-13.571H325.602z M348.811,14.568c-1.385-2.104-3.379-4.708-5.207-6.646v6.646H348.811z
			 M343.881,24.373c0.166,2.937,0.277,4.099,0.389,4.931c1.551-2.327,2.215-3.823,2.658-4.931H343.881z"/>
		<path fill="#FFFFFF" d="M390.844,45.865c0.941-0.276,1.164-0.332,1.551-0.498l-1.162-7.035c-0.998,7.035-2.771,11.521-5.65,16.23
			l-8.365-5.872c1.053-1.273,1.996-2.438,3.047-4.93c-4.488,1.828-10.414,3.656-13.404,4.598l-0.721-11.244
			c1.273-0.222,2.438-0.388,4.209-0.831V23.376h-3.877V13.239h3.877V0.942h9.361v12.297h2.105v10.137h-2.105V33.68
			c0.611-0.222,0.943-0.333,2.105-0.72l0.389,4.541c0.83-4.099,0.83-6.093,0.83-12.408V7.312h16.785
			c-0.057-3.323-0.057-4.431-0.057-6.369h9.584v6.369h2.492c-0.996-2.437-1.773-3.656-2.438-4.764L416.049,0
			c0.719,0.998,2.215,3.157,3.434,6.094l-3.102,1.218h2.881v9.362h-9.916c0,3.987,0,5.816,0.275,10.358
			c0.775-2.105,1.553-4.652,2.383-9.584l7.479,4.487c-1.439,5.041-3.49,11.356-8.197,18.558c0.164,0.498,0.332,1.052,0.996,1.052
			c1.662,0,4.93-5.706,6.037-8.198l1.773,13.572c-2.271,4.431-5.816,7.256-8.918,7.256c-1.053,0-4.543-0.221-6.703-5.595
			c-3.766,3.435-6.094,4.652-8.199,5.706L390.844,45.865z M391.951,28.693c-0.055,3.933-0.277,6.26-0.498,7.7
			c1.275,0,1.719-0.055,1.883-1.053c0.168-0.775,0.277-1.605,0.5-6.647H391.951z M392.008,16.674v3.323h8.365
			c-0.057-0.498-0.168-2.825-0.168-3.323H392.008z M402.254,39.439c-0.941-6.203-1.107-8.641-1.328-11.577
			c-0.221,5.54-0.443,10.138-1.33,13.793C400.98,40.604,401.756,39.939,402.254,39.439z"/>
		<path fill="#FFFFFF" d="M442.795,4.931l-1.441,30.576h-8.309l-1.439-30.576H442.795z M432.104,48.58V38.442h10.193V48.58H432.104z
			"/>
	</g>
</g>
</svg>
