<?xml version="1.0" encoding="utf-8"?>
<!-- Generator: Adobe Illustrator 16.0.0, SVG Export Plug-In . SVG Version: 6.00 Build 0)  -->
<!DOCTYPE svg PUBLIC "-//W3C//DTD SVG 1.1//EN" "http://www.w3.org/Graphics/SVG/1.1/DTD/svg11.dtd">
<svg version="1.1" id="Layer_1" xmlns="http://www.w3.org/2000/svg" xmlns:xlink="http://www.w3.org/1999/xlink" x="0px" y="0px"
	 width="176.013px" height="89.995px" viewBox="0 0 176.013 89.995" enable-background="new 0 0 176.013 89.995"
	 xml:space="preserve">
<g>
	<g>
		<path fill="#231F20" d="M3.76,69.582V56.14L0,58.867v-3.342l4.202-3.022h2.63v17.079H3.76z"/>
		<path fill="#231F20" d="M40.996,42.711H54.26v9.518h-6.728V47.68h-6.536v5.428h-6.88V47.68H26.93v4.549h-6.345v-9.518h13.148
			v-0.803H22.687v-4.625h29.585v4.625H40.996V42.711z M33.542,70.079v-3.325h-4.051v1.566h-7.568V53.452h30.54v9.747l3.287,1.796
			c-0.114,3.097-0.649,5.236-1.605,6.384c-1.3,0.917-3.401,1.49-6.345,1.49H36.104C34.46,72.487,33.542,71.569,33.542,70.079z
			 M27.732,48.139h5.122v2.103h-5.122V48.139z M27.809,50.891h5.046v2.103h-5.046V50.891z M33.504,57.465h-4.013v0.65h4.013V57.465z
			 M33.504,62.09h-4.013v0.688h4.013V62.09z M44.971,57.465h-3.86v0.65h3.86V57.465z M44.895,62.09H41.11v0.688h3.784V62.09z
			 M41.11,67.518h5.428c0.918,0,1.338-0.306,1.262-0.649H41.11V67.518z M41.723,48.139h4.931v1.911h-4.931V48.139z M41.799,50.7
			h4.854v2.179h-4.854V50.7z"/>
		<path fill="#231F20" d="M83.39,51.885h11.582v7.453H82.511l-0.038,7.109c0,3.556-1.224,6.192-3.784,6.192H71.35l-2.408-7.759
			h4.663c1.186,0,1.835-0.421,1.835-1.453v-4.09h-14.41v-7.453h14.41v-4.319h2.752l2.179-2.752H64.125v-7.454h26.871v6.23
			C88.55,46.343,86.027,49.095,83.39,51.885z"/>
		<path fill="#231F20" d="M111.104,37.054v6.001h2.676v3.211c0.918-0.535,1.491-1.567,1.491-3.096v-6.001h14.143l-0.038,7.415
			c0.306,0.421,0.611,0.459,0.917,0.114v-4.204l5.274,3.02c0.115,1.987,0.039,3.746-0.229,5.274
			c-0.535,1.797-1.759,2.676-3.708,2.676h-6.23c-1.338,0-2.179-0.726-2.561-2.141v-4.969h-0.688
			c-0.535,3.632-1.605,6.307-3.173,7.989h14.143v6.001c-0.955,2.141-2.063,4.09-3.325,5.886c1.988,0.497,4.052,0.918,6.154,1.186
			l-2.829,7.453l-2.752-0.688c-2.561-0.65-4.854-1.683-6.956-2.753c-2.064,1.186-4.167,2.256-6.46,2.867l-2.905,0.765
			c-0.955-1.835-1.949-3.746-2.943-5.771v2.255c-0.458,1.835-1.528,2.905-3.249,3.211h-5.466l-1.72-7.225l2.676,0.038
			c0.649,0,0.994-0.42,1.07-1.223v-3.555l-3.899,0.42l-0.19-7.301l4.09-0.535v-3.669h-3.899v-6.651h3.899v-6.001H111.104z
			 M111.104,49.706v2.943l2.676-0.306v6.994l-2.676,0.535l-0.038,6.116c2.141-0.153,4.128-0.573,5.963-1.224
			c-1.261-1.338-2.369-2.676-3.363-3.975l2.752-1.376h-1.873v-7.071h1.452l-2.14-2.638H111.104z M123.146,61.021
			c0.573-0.459,1.146-0.994,1.682-1.605h-3.02C122.113,60.064,122.572,60.6,123.146,61.021z"/>
		<path fill="#231F20" d="M175.438,63.657h-5.083c1.414,1.032,3.287,2.064,5.657,3.097l-3.899,5.886
			c-3.555-1.796-6.65-3.975-9.288-6.536l2.446-2.446h-3.173v3.555c0,3.326-1.682,5.313-4.739,5.313h-4.243l-1.911-4.243
			c-2.255,2.064-4.396,3.479-6.421,4.243l-4.243-5.008c2.064-0.955,3.898-2.255,5.504-3.86h-5.312V58h34.706V63.657z M175.286,42.94
			H165.08v0.879h8.257v8.639h-30.235v-8.639h7.798V42.94h-9.556v-5.581h33.942V42.94z M172.19,57.351h-28.286v-3.976h28.286V57.351z
			 M149.294,48.903h1.605v-0.765h-1.605V48.903z M154.951,63.657h-3.363l2.102,1.911c-0.114,0.421-0.458,0.841-1.031,1.3h2.293
			V63.657z M157.359,43.819h1.682V42.94h-1.682V43.819z M157.359,48.903h1.682v-0.765h-1.682V48.903z M165.08,48.903h1.721v-0.765
			h-1.721V48.903z"/>
	</g>
	<g>
		<path fill="#231F20" d="M22.853,0v2.826h1.261v1.513c0.432-0.252,0.702-0.738,0.702-1.458V0.054h6.662l-0.019,3.493
			c0.145,0.198,0.288,0.216,0.433,0.054V1.62l2.484,1.423c0.055,0.936,0.019,1.765-0.107,2.484
			c-0.252,0.847-0.828,1.261-1.747,1.261h-2.935c-0.63,0-1.026-0.343-1.206-1.009V3.438h-0.324
			c-0.252,1.711-0.757,2.971-1.495,3.764h6.662v2.826c-0.45,1.009-0.972,1.927-1.566,2.773c0.937,0.233,1.909,0.432,2.899,0.558
			l-1.333,3.512l-1.296-0.324c-1.207-0.307-2.287-0.792-3.277-1.297c-0.972,0.559-1.963,1.062-3.043,1.351l-1.368,0.36
			c-0.45-0.864-0.918-1.765-1.387-2.719v1.062c-0.216,0.864-0.72,1.368-1.53,1.512h-2.575l-0.81-3.402l1.26,0.018
			c0.307,0,0.469-0.198,0.505-0.576v-1.675l-1.837,0.198l-0.09-3.438l1.927-0.252V5.96h-1.837V2.826h1.837V0H22.853z M22.853,5.96
			v1.386l1.261-0.144v3.295l-1.261,0.252l-0.018,2.881c1.008-0.072,1.944-0.271,2.809-0.576c-0.594-0.63-1.116-1.261-1.584-1.873
			l1.296-0.647h-0.882V7.202h0.684L24.149,5.96H22.853z M28.524,11.289c0.271-0.216,0.54-0.468,0.792-0.756h-1.422
			C28.038,10.839,28.255,11.091,28.524,11.289z"/>
		<path fill="#231F20" d="M53.15,12.531h-2.395c0.666,0.486,1.549,0.973,2.665,1.459l-1.837,2.772
			c-1.675-0.847-3.133-1.873-4.375-3.079l1.152-1.152h-1.495v1.675c0,1.566-0.792,2.503-2.232,2.503h-1.998l-0.9-1.999
			c-1.062,0.973-2.07,1.639-3.025,1.999l-1.998-2.359c0.972-0.45,1.836-1.062,2.593-1.818h-2.503V9.866H53.15V12.531z M53.078,2.772
			h-4.807v0.414h3.889v4.069H37.918V3.187h3.673V2.772H37.09V0.144h15.988V2.772z M51.62,9.561H38.296V7.688H51.62V9.561z
			 M40.835,5.581h0.756V5.222h-0.756V5.581z M43.5,12.531h-1.585l0.99,0.9c-0.054,0.198-0.216,0.396-0.486,0.612H43.5V12.531z
			 M44.634,3.187h0.793V2.772h-0.793V3.187z M44.634,5.581h0.793V5.222h-0.793V5.581z M48.271,5.581h0.81V5.222h-0.81V5.581z"/>
		<path fill="#231F20" d="M62.057,1.674V0h3.674v1.674h6.59v3.493h-8.877c0,0.343,0,0.666,0,0.954h7.202v5.312
			c0,1.639-0.414,2.989-0.918,4.088c-0.504,0.864-1.603,1.296-3.295,1.296h-1.783l-1.044-3.493h2.07
			c0.648,0,1.045-0.306,1.171-1.008l0.216-2.503l-4.105,0.019c-0.846,2.916-2.431,5.293-4.753,7.13l-2.593-2.917
			c1.53-1.009,2.7-2.287,3.511-3.799c0.522-1.495,0.756-3.188,0.702-5.078h-4.087V1.674H62.057z"/>
		<path fill="#231F20" d="M90.645,5.365h-3.962v1.062h4.412v3.331h-5.78c-0.486,1.26-0.9,2.25-1.26,2.971l1.962-0.162
			c-0.233-0.414-0.468-0.828-0.702-1.242l3.062-1.261c1.134,1.927,2.106,3.728,2.916,5.384l-3.204,1.459
			c-0.162-0.307-0.343-0.667-0.54-1.099l-7.995,0.702l-0.72-3.313c-0.486,1.261-0.99,2.485-1.513,3.674l-2.898-2.684
			c0.558-1.116,1.188-2.593,1.89-4.429l3.151,1.53c-0.162,0.648-0.324,1.206-0.486,1.656l1.242-0.054
			c0.433-1.044,0.883-2.089,1.333-3.133H78.94V8.462l-1.08,1.603c-1.152-0.937-2.286-1.729-3.385-2.376l1.458-2.773
			c1.116,0.378,2.179,0.883,3.205,1.513h3.943V5.365h-3.439V4.069l-0.954,1.35c-1.351-0.828-2.593-1.566-3.709-2.232l1.963-2.935
			c1.152,0.522,2.25,1.116,3.295,1.782h2.845V0h3.601v2.034h3.962V5.365z"/>
	</g>
	<line fill="none" stroke="#231F20" stroke-width="10" stroke-miterlimit="10" x1="20.191" y1="84.995" x2="174.534" y2="84.995"/>
</g>
</svg>
