<?xml version="1.0" encoding="utf-8"?>
<!-- Generator: Adobe Illustrator 16.0.0, SVG Export Plug-In . SVG Version: 6.00 Build 0)  -->
<!DOCTYPE svg PUBLIC "-//W3C//DTD SVG 1.1//EN" "http://www.w3.org/Graphics/SVG/1.1/DTD/svg11.dtd">
<svg version="1.1" id="Layer_1" xmlns="http://www.w3.org/2000/svg" xmlns:xlink="http://www.w3.org/1999/xlink" x="0px" y="0px"
	 width="179.39px" height="89.995px" viewBox="0 0 179.39 89.995" enable-background="new 0 0 179.39 89.995" xml:space="preserve">
<g>
	<g>
		<path fill="#231F20" d="M1.049,69.587V67.13l6.66-7.938c0.295-0.345,0.516-0.709,0.663-1.094s0.222-0.75,0.222-1.094
			c0-0.606-0.185-1.114-0.554-1.523c-0.368-0.409-0.905-0.614-1.609-0.614c-0.737,0-1.303,0.237-1.695,0.712
			c-0.394,0.476-0.59,1.057-0.59,1.745H1c0-0.753,0.123-1.445,0.368-2.076c0.246-0.631,0.599-1.176,1.057-1.635
			c0.459-0.458,1.024-0.814,1.696-1.068c0.671-0.254,1.449-0.381,2.334-0.381c0.737,0,1.426,0.11,2.064,0.331
			c0.639,0.222,1.195,0.541,1.671,0.959c0.476,0.417,0.848,0.921,1.118,1.511s0.405,1.262,0.405,2.016
			c0,0.377-0.053,0.754-0.159,1.13c-0.106,0.377-0.246,0.742-0.418,1.094c-0.172,0.353-0.368,0.692-0.59,1.02
			c-0.221,0.328-0.454,0.64-0.7,0.935L5.128,66.81h6.832v2.777H1.049z"/>
		<path fill="#231F20" d="M56.101,72.874c-4.663-0.306-9.174-1.223-13.531-2.79l0.42-1.224h-6.077l0.956,1.108
			c-3.746,1.644-7.951,2.638-12.614,3.021l-3.02-5.695c1.185,0,2.408-0.077,3.708-0.229V55.788h28.094v11.199l4.166,0.535
			L56.101,72.874z M57.782,39.161v7.988h-3.746l-0.229,1.415h4.167v3.555h-4.357l-0.459,3.211H26.133l0.383-3.211h-4.014v-3.555
			h4.434l0.077-0.994h-4.052v-8.409h13.034v-1.987h8.064v1.987H57.782z M30.262,44.245v0.688h19.531v-0.688H30.262z M33.549,64.886
			v0.649h12.996v-0.649H33.549z M33.625,58.655v0.765h12.92v-0.765H33.625z M33.625,61.789v0.65h12.92v-0.65H33.625z M33.816,52.119
			l-0.077,0.535h2.753l0.076-0.535H33.816z M34.274,47.57l-0.19,0.994h2.904l0.268-0.994H34.274z M43.296,52.119l-0.115,0.535h3.249
			l0.115-0.535H43.296z M44.06,47.57l-0.268,0.994h3.135l0.114-0.994H44.06z"/>
		<path fill="#231F20" d="M77.93,58.464v-0.573h-0.535v11.543c0,2.218-1.146,3.326-3.058,3.326h-3.631l-0.535-5.008h1.414
			c0.459,0,0.611-0.306,0.497-0.879H69.33v6.001h-5.237V57.891h-1.452v-8.753h1.262v-11.85h13.875v11.85h0.955v-9.747h4.319v-2.446
			h4.434v2.446h1.07v-2.446h4.243v2.446h4.396v13.493H79.879v0.802h18.233v4.778H77.93z M73.688,42.602H68.45v6.536h0.765v-5.887
			h4.473V42.602z M74.069,54.26h-5.428v0.879h5.428V54.26z M72.196,59.229H69.33v0.879h2.866V59.229z M72.196,62.859H69.33v0.879
			h2.866V62.859z M73.688,47.57h-0.88v1.567h0.88V47.57z M78.121,73.065v-4.969h3.517L80.759,66.3h-1.873v-7.187h17.851V66.3h-1.491
			l-0.611,1.797h3.479v4.969H78.121z M83.052,43.366h-0.803v1.337h0.803V43.366z M83.052,47.8h-0.803v1.338h0.803V47.8z
			 M89.703,62.21h-4.09v0.765h4.09V62.21z M86.874,66.3l0.688,1.797h0.879l0.803-1.797H86.874z M88.556,43.366h-1.07v1.337h1.07
			V43.366z M88.556,47.8h-1.07v1.338h1.07V47.8z M93.563,43.366h-0.765v1.337h0.765V43.366z M93.563,47.8h-0.765v1.338h0.765V47.8z"
			/>
		<path fill="#231F20" d="M137.676,63.662h-5.083c1.414,1.032,3.287,2.064,5.657,3.097l-3.899,5.886
			c-3.555-1.796-6.65-3.975-9.288-6.536l2.446-2.446h-3.173v3.555c0,3.326-1.682,5.313-4.739,5.313h-4.243l-1.911-4.243
			c-2.255,2.064-4.396,3.479-6.421,4.243l-4.243-5.008c2.064-0.955,3.898-2.255,5.504-3.86h-5.312v-5.657h34.706V63.662z
			 M137.523,42.945h-10.206v0.879h8.257v8.639h-30.235v-8.639h7.798v-0.879h-9.556v-5.581h33.942V42.945z M134.428,57.355h-28.286
			V53.38h28.286V57.355z M111.531,48.908h1.605v-0.765h-1.605V48.908z M117.188,63.662h-3.363l2.102,1.911
			c-0.114,0.421-0.458,0.841-1.031,1.3h2.293V63.662z M119.597,43.824h1.682v-0.879h-1.682V43.824z M119.597,48.908h1.682v-0.765
			h-1.682V48.908z M127.317,48.908h1.721v-0.765h-1.721V48.908z"/>
		<path fill="#231F20" d="M142.726,65.459l8.562-1.376l0.191-2.141l-5.505,2.255l-3.249-12.078l6.154-2.256l2.676,10.703
			l0.841-11.199l6.345,1.108c-0.306,3.096-1.032,9.326-1.528,12.461l1.49-0.345v7.53l-14.678,2.522L142.726,65.459z M154.919,41.493
			v-4.625h-7.186v4.625h-4.511v7.453h15.939v-7.453H154.919z M178.121,41.302h-7.836v-4.319h-7.76v14.41h-3.287v21.405h7.071v-0.994
			h3.976v0.994h7.071V51.393h-7.071v-2.676h7.836V41.302z M166.31,65.153v-6.881h3.976v6.881H166.31z"/>
	</g>
	<line fill="none" stroke="#231F20" stroke-width="10" stroke-miterlimit="10" x1="22.224" y1="85" x2="178.896" y2="85"/>
</g>
</svg>
