<?xml version="1.0" encoding="utf-8"?>
<!-- Generator: Adobe Illustrator 15.0.0, SVG Export Plug-In . SVG Version: 6.00 Build 0)  -->
<!DOCTYPE svg PUBLIC "-//W3C//DTD SVG 1.1//EN" "http://www.w3.org/Graphics/SVG/1.1/DTD/svg11.dtd">
<svg version="1.1" id="Layer_1" xmlns="http://www.w3.org/2000/svg" xmlns:xlink="http://www.w3.org/1999/xlink" x="0px" y="0px"
	 width="137.422px" height="74.778px" viewBox="0 0 137.422 74.778" enable-background="new 0 0 137.422 74.778"
	 xml:space="preserve">
<g>
	<g>
		<path fill="#17BEF0" d="M27.123,0.066l-1.402,0.36C25.433,0.169,25.052,0.01,24.639,0c-0.938-0.027-1.723,0.717-1.748,1.661
			c-0.009,0.361,0.099,0.697,0.285,0.979l-0.067-0.007l-8.821,5.403c0,0,2.279,2.093,4.809,2.079v2.156h0.822v-2.24
			c0.158-0.033,0.319-0.077,0.482-0.134v2.374h0.814V9.52c1.38-0.825,2.66-2.642,3.521-6.121c0.854-0.073,1.534-0.778,1.561-1.651
			c0-0.104-0.007-0.209-0.024-0.306L27.123,0.066z M24.544,1.58c-0.178-0.002-0.323-0.154-0.315-0.335
			c0.006-0.18,0.154-0.319,0.333-0.314c0.179,0.008,0.316,0.151,0.311,0.331C24.869,1.442,24.723,1.585,24.544,1.58z"/>
		<g>
			<path fill="#17BEF0" d="M20.516,52.503C9.207,52.503,0,43.305,0,31.998c0-11.309,9.207-20.516,20.516-20.516
				c11.306,0,20.508,9.207,20.508,20.516C41.023,43.305,31.821,52.503,20.516,52.503z M20.516,13.704
				c-10.093,0-18.295,8.205-18.295,18.294c0,10.082,8.202,18.292,18.295,18.292c10.085,0,18.288-8.21,18.288-18.292
				C38.804,21.909,30.601,13.704,20.516,13.704z"/>
		</g>
		<g>
			<g>
				<path fill="#17BEF0" d="M8.664,64.81v-1.125h-1.02v1.125H5.996v-3.716l-1.018,1.133c-0.083-0.585-0.223-1.25-0.414-1.833v4.511
					H2.909v-3.218c-0.383,0.621-0.841,1.234-1.334,1.789l-0.15-0.112c0.54-1.455,1.031-2.969,1.171-4.612H1.552v-0.335h1.357v-1.512
					c-0.313,0-0.969,0.015-1.334,0l-0.023-0.176c1.055-0.445,2.085-0.92,2.984-1.762l1.261,1.456
					c-0.375,0.109-0.818,0.217-1.232,0.307v1.688h1.209v0.335H4.564v0.479c0.487,0.444,1.028,1.054,1.432,1.631v-5.088h4.287v9.038
					H8.664z M8.664,56.108h-1.02v7.243h1.02V56.108z"/>
				<path fill="#17BEF0" d="M16.95,60.81v4.125h-1.739V60.81h-3.575v-0.349h3.575v-4.646h-3.27v-0.35h8.312v0.35H16.95v4.646h3.592
					v0.349H16.95z M12.998,60.139c-0.113-1.199-0.364-2.354-0.756-3.445l0.635-0.308c0.707,0.896,1.344,1.874,1.796,2.908
					L12.998,60.139z M17.512,60.063l-0.172-0.131c0.499-1.114,0.838-2.293,1.023-3.546l1.856,0.622
					C19.521,58.141,18.556,59.271,17.512,60.063z"/>
				<path fill="#17BEF0" d="M24.141,57.639v7.266h-1.604v-4.841c-0.187,0.22-0.551,0.621-0.804,0.888l-0.159-0.124
					c0.759-1.756,1.187-3.797,1.415-5.768l1.811,0.434C24.627,56.214,24.402,56.926,24.141,57.639z M28.125,57.672v2.399h2.138
					v4.833h-1.627v-0.652h-2.322v0.652h-1.687v-4.833h1.809v-4.876h1.689v2.142h2.517v0.335H28.125z M28.636,60.418h-2.322v3.487
					h2.322V60.418z"/>
				<path fill="#17BEF0" d="M37.17,61.652v3.221h-1.757v-3.221H32.21v-4.427h3.203v-2.052h1.757v2.052h3.143v4.427H37.17z
					 M35.413,57.575H34v3.73h1.413V57.575z M38.585,57.575H37.17v3.73h1.415V57.575z"/>
			</g>
			<g>
				<path fill="#17BEF0" d="M2.255,68.479c0.13-0.747,0.733-1.226,1.32-1.226c0.645,0,1.023,0.547,0.915,1.207
					c-0.111,0.666-0.677,1.217-1.327,1.217c-0.647,0-1.013-0.575-0.908-1.192V68.479z M2.686,68.459
					c-0.067,0.426,0.146,0.804,0.559,0.804c0.429,0,0.747-0.418,0.812-0.801c0.068-0.39-0.114-0.801-0.548-0.801
					c-0.429,0-0.752,0.387-0.823,0.794V68.459z"/>
				<path fill="#17BEF0" d="M6.99,68.845c-0.211,0.481-0.684,0.832-1.182,0.832c-0.647,0-1.01-0.575-0.904-1.221
					c0.101-0.617,0.641-1.203,1.312-1.203c0.611,0.003,0.87,0.493,0.893,0.84H6.662c-0.037-0.163-0.181-0.429-0.52-0.432
					c-0.413,0-0.744,0.381-0.812,0.794c-0.065,0.426,0.146,0.808,0.548,0.808c0.377,0,0.605-0.331,0.661-0.418H6.99z"/>
				<path fill="#17BEF0" d="M9.538,68.845c-0.209,0.481-0.682,0.832-1.177,0.832c-0.645,0-1.017-0.575-0.906-1.221
					c0.103-0.617,0.646-1.203,1.314-1.203c0.609,0.003,0.869,0.493,0.899,0.84H9.218c-0.042-0.163-0.186-0.429-0.524-0.432
					c-0.413,0-0.741,0.381-0.808,0.794c-0.075,0.426,0.136,0.808,0.543,0.808c0.381,0,0.604-0.331,0.66-0.418H9.538z"/>
				<path fill="#17BEF0" d="M10.714,67.291l-0.239,1.44c-0.02,0.114-0.041,0.234,0,0.349c0.035,0.104,0.116,0.183,0.261,0.183
					c0.138,0,0.245-0.077,0.306-0.172c0.079-0.112,0.101-0.241,0.127-0.36l0.234-1.44h0.432l-0.243,1.44
					c-0.062,0.345-0.153,0.554-0.338,0.719c-0.157,0.132-0.357,0.227-0.587,0.227c-0.156,0-0.39-0.047-0.516-0.227
					c-0.161-0.204-0.159-0.408-0.103-0.719l0.238-1.44H10.714z"/>
				<path fill="#17BEF0" d="M13.062,67.291c0.358,0,0.497,0.057,0.603,0.164c0.128,0.14,0.173,0.366,0.137,0.595
					c-0.038,0.232-0.164,0.471-0.32,0.591c-0.169,0.129-0.321,0.184-0.633,0.184H12.59l-0.135,0.804h-0.429l0.396-2.338H13.062z
					 M12.659,68.412h0.257c0.093,0,0.187-0.006,0.284-0.059c0.083-0.039,0.168-0.148,0.191-0.293c0.024-0.152-0.023-0.247-0.1-0.294
					c-0.076-0.051-0.173-0.057-0.276-0.057h-0.234L12.659,68.412z"/>
				<path fill="#17BEF0" d="M14.592,68.789l-0.398-1.498h0.462l0.223,1.062l0.586-1.062h0.457l-0.897,1.498l-0.146,0.84h-0.427
					L14.592,68.789z"/>
				<path fill="#17BEF0" d="M19.216,68.845c-0.212,0.481-0.681,0.832-1.18,0.832c-0.648,0-1.012-0.575-0.909-1.221
					c0.108-0.617,0.643-1.203,1.318-1.203c0.611,0.003,0.869,0.493,0.896,0.84h-0.451c-0.037-0.163-0.184-0.429-0.521-0.432
					c-0.417,0-0.741,0.381-0.809,0.794c-0.074,0.426,0.14,0.808,0.545,0.808c0.377,0,0.604-0.331,0.659-0.418H19.216z"/>
				<path fill="#17BEF0" d="M19.967,67.291h1.192l-0.07,0.418h-0.763l-0.089,0.527h0.749l-0.074,0.413h-0.747l-0.092,0.563h0.764
					l-0.072,0.417h-1.189L19.967,67.291z"/>
				<path fill="#17BEF0" d="M22.783,68.909l0.266-1.618h0.408l-0.391,2.338h-0.381l-0.709-1.618l-0.261,1.618h-0.413l0.39-2.338
					h0.387L22.783,68.909z"/>
				<path fill="#17BEF0" d="M24.271,67.709h-0.457l0.067-0.418h1.347l-0.07,0.418h-0.456l-0.321,1.92h-0.428L24.271,67.709z"/>
				<path fill="#17BEF0" d="M25.646,67.291h0.634c0.332,0,0.515,0.057,0.61,0.148c0.157,0.138,0.207,0.378,0.167,0.633
					c-0.028,0.174-0.1,0.322-0.189,0.44c-0.117,0.145-0.245,0.212-0.395,0.254l0.33,0.862h-0.447l-0.388-1.087h0.083
					c0.137,0,0.293-0.007,0.39-0.087c0.1-0.072,0.171-0.198,0.198-0.338c0.025-0.142-0.017-0.271-0.099-0.343
					c-0.071-0.047-0.168-0.065-0.294-0.065h-0.248l-0.316,1.92h-0.438L25.646,67.291z"/>
				<path fill="#17BEF0" d="M27.546,69.629h-0.469l1.254-2.338h0.379l0.446,2.338h-0.469l-0.074-0.462h-0.841L27.546,69.629z
					 M28.409,67.852l-0.454,0.943h0.603L28.409,67.852z"/>
				<path fill="#17BEF0" d="M29.982,67.291h0.425l-0.32,1.921h0.694l-0.067,0.417H29.59L29.982,67.291z"/>
				<path fill="#17BEF0" d="M32.315,67.291h0.432l0.082,1.695l0.653-1.695h0.325l0.092,1.7l0.646-1.7h0.43l-0.971,2.338h-0.386
					l-0.092-1.66l-0.646,1.66h-0.394L32.315,67.291z"/>
				<path fill="#17BEF0" d="M35.424,67.291h0.423l-0.393,2.338h-0.425L35.424,67.291z"/>
				<path fill="#17BEF0" d="M36.66,67.709H36.2l0.074-0.418h1.342l-0.066,0.418h-0.461l-0.325,1.92H36.34L36.66,67.709z"/>
				<path fill="#17BEF0" d="M37.646,69.629l0.393-2.338h0.429l-0.16,0.941h0.816l0.158-0.941h0.431l-0.397,2.338h-0.427l0.171-0.986
					h-0.824l-0.161,0.986H37.646z"/>
			</g>
			<path fill="#17BEF0" d="M2.844,71.215h0.75l-0.417,2.497h0.864l-0.122,0.719H2.304L2.844,71.215z"/>
			<path fill="#17BEF0" d="M4.469,72.858c0.172-1.052,1.021-1.705,1.827-1.705c0.898,0,1.414,0.776,1.26,1.668
				c-0.15,0.897-0.924,1.672-1.83,1.672c-0.918,0-1.398-0.803-1.257-1.632V72.858z M5.22,72.821c-0.087,0.491,0.142,0.95,0.643,0.95
				c0.529,0,0.882-0.529,0.948-0.941c0.067-0.417-0.099-0.948-0.639-0.948c-0.513,0-0.877,0.481-0.952,0.938V72.821z"/>
			<path fill="#17BEF0" d="M8.121,71.215h0.77l0.213,2.259l0.978-2.259h0.771l-1.525,3.216H8.556L8.121,71.215z"/>
			<path fill="#17BEF0" d="M11.453,71.215h1.655l-0.126,0.722h-0.904l-0.09,0.502h0.883l-0.12,0.718h-0.882l-0.092,0.555h0.911
				l-0.124,0.719H10.91L11.453,71.215z"/>
			<path fill="#17BEF0" d="M15.229,74.431h-0.811l1.7-3.216h0.642l0.58,3.216h-0.817l-0.059-0.464H15.44L15.229,74.431z
				 M16.24,72.192l-0.503,1.125h0.65L16.24,72.192z"/>
			<path fill="#17BEF0" d="M19.896,73.175l0.311-1.959h0.715l-0.538,3.216h-0.647l-0.79-1.934l-0.314,1.934h-0.709l0.535-3.216H19.1
				L19.896,73.175z"/>
			<path fill="#17BEF0" d="M21.733,71.215h0.964c0.326,0,0.912,0,1.193,0.604c0.15,0.303,0.16,0.644,0.1,1
				c-0.147,0.873-0.668,1.611-1.778,1.611h-1.025L21.733,71.215z M22.054,73.712h0.326c0.554,0,0.78-0.425,0.861-0.882
				c0.031-0.185,0.035-0.417-0.042-0.592c-0.064-0.146-0.185-0.3-0.521-0.3h-0.323L22.054,73.712z"/>
			<path fill="#17BEF0" d="M27.387,71.215c0.543,0,0.727,0.09,0.861,0.238c0.191,0.208,0.259,0.526,0.2,0.852
				c-0.055,0.324-0.233,0.668-0.451,0.845c-0.233,0.182-0.446,0.277-0.899,0.277h-0.292l-0.173,1.005h-0.744l0.542-3.216H27.387z
				 M26.93,72.705h0.277c0.067,0,0.182,0,0.291-0.051c0.105-0.047,0.2-0.145,0.233-0.336c0.032-0.193-0.037-0.282-0.129-0.333
				c-0.097-0.048-0.222-0.048-0.303-0.048h-0.242L26.93,72.705z"/>
			<path fill="#17BEF0" d="M29.22,71.215h1.655l-0.121,0.722h-0.91l-0.084,0.502h0.878l-0.117,0.718H29.64l-0.093,0.555h0.909
				l-0.124,0.719h-1.653L29.22,71.215z"/>
			<path fill="#17BEF0" d="M31.618,74.431h-0.806l1.696-3.216h0.646l0.578,3.216H32.91l-0.056-0.464h-1.023L31.618,74.431z
				 M32.631,72.192l-0.502,1.125h0.642L32.631,72.192z"/>
			<path fill="#17BEF0" d="M37.17,73.233c-0.299,0.757-0.985,1.26-1.689,1.26c-0.921,0-1.407-0.803-1.258-1.672
				c0.141-0.822,0.859-1.668,1.812-1.668c0.919,0,1.278,0.781,1.271,1.286h-0.783c-0.045-0.239-0.209-0.558-0.607-0.558
				c-0.508,0-0.869,0.479-0.939,0.938c-0.089,0.48,0.134,0.951,0.617,0.951c0.467,0,0.73-0.425,0.797-0.538H37.17z"/>
			<path fill="#17BEF0" d="M38.173,71.215h1.654L39.7,71.938h-0.906l-0.079,0.502h0.875l-0.119,0.718h-0.88L38.5,73.712h0.908
				l-0.125,0.719h-1.658L38.173,71.215z"/>
		</g>
	</g>
	<path fill="#17BEF0" d="M58.602,21.887c0,4.705-3.074,7.217-6.816,7.217c-3.715,0-6.844-2.378-6.844-7.084
		c0-2.593,0.854-4.544,1.817-6.255l3.342-6.014h6.709l-3.501,5.879C56.222,15.63,58.602,17.876,58.602,21.887z M50.476,21.833
		c0,1.364,0.56,2.406,1.335,2.406c0.803,0,1.364-1.042,1.364-2.406s-0.562-2.352-1.364-2.352
		C51.035,19.481,50.476,20.469,50.476,21.833z"/>
	<path fill="#17BEF0" d="M60.618,26.591c0-1.244,0.882-2.306,2.165-2.306s2.167,1.062,2.167,2.306c0,1.283-0.884,2.285-2.167,2.285
		S60.618,27.874,60.618,26.591z"/>
	<path fill="#17BEF0" d="M67.395,23.597l6.096-6.122c0.613-0.641,1.148-1.417,1.148-2.084c0-0.616-0.32-1.071-0.963-1.071
		c-0.747,0-1.282,0.75-1.282,2.139l-5.427-0.481c0.402-4.491,3.181-6.655,6.816-6.655c3.822,0,6.442,2.192,6.442,6.094
		c0,2.487-1.524,4.304-2.78,5.481l-2.994,2.779h5.532v4.999H67.395V23.597z"/>
	<path fill="#17BEF0" d="M82.284,19.213c0-4.142,1.175-9.89,6.896-9.89s6.897,5.748,6.897,9.89c0,4.143-1.177,9.891-6.897,9.891
		S82.284,23.356,82.284,19.213z M88.003,19.213c0,2.379,0.241,4.732,1.177,4.732c0.908,0,1.15-2.353,1.15-4.732
		c0-2.299-0.242-4.731-1.15-4.731C88.244,14.481,88.003,16.914,88.003,19.213z"/>
	<path fill="#17BEF0" d="M97.841,19.454h8.34v3.208h-8.34V19.454z"/>
	<path fill="#17BEF0" d="M108.56,23.597l6.093-6.122c0.616-0.641,1.15-1.417,1.15-2.084c0-0.616-0.32-1.071-0.963-1.071
		c-0.748,0-1.282,0.75-1.282,2.139l-5.426-0.481c0.4-4.491,3.179-6.655,6.815-6.655c3.823,0,6.443,2.192,6.443,6.094
		c0,2.487-1.524,4.304-2.781,5.481l-2.994,2.779h5.533v4.999H108.56V23.597z"/>
	<path fill="#17BEF0" d="M124.062,23.597l6.096-6.122c0.614-0.641,1.148-1.417,1.148-2.084c0-0.616-0.32-1.071-0.962-1.071
		c-0.748,0-1.282,0.75-1.282,2.139l-5.428-0.481c0.402-4.491,3.181-6.655,6.816-6.655c3.824,0,6.443,2.192,6.443,6.094
		c0,2.487-1.525,4.304-2.779,5.481l-2.995,2.779h5.533v4.999h-12.591V23.597z"/>
	<path d="M44.611,43.727c2.785-0.485,4.593-1.274,5.658-1.83h-2.896v-3.402h9.896c2.465,2.958,6.022,4.492,8.446,5.32l-1.596,4.082
		c-0.595-0.233-1.172-0.467-2.066-0.913v1.318h-4.827v1.256h6.551v3.487h-6.551v1.3h8v3.742H45.078v-3.742h8.168v-1.3h-6.528v-3.487
		h6.528v-1.256h-4.741v-1.467c-0.853,0.427-1.637,0.722-2.364,1L44.611,43.727z M58.417,44.772
		c-1.552-1.174-2.446-2.063-3.169-2.853c-0.658,0.723-1.531,1.662-3.214,2.853H58.417z"/>
	<path d="M68.432,54.284c0.683-0.043,1.022-0.043,1.488-0.11V38.667h18.149v7.296h-6c0.044,0.45,0.065,0.705,0.106,1.066h6.616
		v3.937h-5.806c0.723,2.296,1.528,2.936,1.935,2.936c0.596,0,1.83-1.557,2.318-2.703l2.062,4.276c-0.701,1.34-2.319,3.23-4.169,3.23
		c-1.509,0-2.957-1.251-3.597-1.912c-1.657-1.768-2.531-4.938-2.763-5.828h-4.872v2.741c3.17-0.467,4.276-0.767,5.081-0.979v3.875
		c-1.188,0.379-7.36,1.68-10.103,1.953L68.432,54.284z M73.901,42.07v0.828h10.081V42.07H73.901z M78.051,47.029
		c-0.045-0.512-0.045-0.745-0.045-1.066h-4.104v1.066H78.051z"/>
	<path d="M111.209,47.368v3.765c-0.276,0.573-0.638,1.383-1.934,2.702c1.807,0.532,3.103,0.701,3.87,0.806l-1.874,4.086
		c-1.125-0.294-3.124-0.829-5.744-2.125c-2.764,1.445-4.766,1.786-5.783,1.975l-1.489-3.975v1.956c0,0.935-0.256,2.019-1.917,2.019
		h-3.064l-0.64-4.06h1.43c0.513,0,0.533-0.277,0.533-0.705v-1.724c-0.6,0.172-0.939,0.255-1.662,0.427l-0.339-4.02
		c0.488-0.088,0.85-0.15,2.001-0.427v-2.831h-1.874v-3.725h1.874v-3.23h3.658v3.23h1.235v2.129c1.062-1,1.338-2.146,1.338-3.32
		v-1.762h8.318v3.636c0,0.617,0.062,0.617,0.529,0.617c0.256,0,0.301-0.233,0.322-0.427c0.044-0.317,0.062-1.168,0.062-1.702
		l3.003,0.979c-0.107,4.025-0.701,5.042-2.47,5.042h-3.003c-1.084,0-2.145-0.128-2.145-2.147v-2.49h-0.913
		c-0.193,2.212-1.023,3.958-2.747,5.297H111.209z M101.191,47.368l-1.701-2.19v0.061h-1.235v1.852
		c0.53-0.15,0.785-0.212,1.235-0.384v3.808c-0.346,0.15-0.558,0.233-1.235,0.467v3.575c0.785-0.04,1.936-0.106,3.447-0.551
		c-0.855-0.767-1.323-1.3-1.768-1.811l1.98-1.062h-1.854v-3.765H101.191z M103.804,51.133c0.729,0.595,1.28,0.917,1.662,1.15
		c0.68-0.511,0.914-0.789,1.234-1.15H103.804z"/>
	<path d="M116.055,55.047c0.51-0.15,1.451-0.445,3.213-1.574h-2.852v-2.958h20.342v2.958h-2.725
		c1.214,0.829,2.486,1.424,3.191,1.723l-2.852,3.253c-2.552-1.53-3.854-3.041-4.766-4.208l1.425-0.768h-2.424v3.147
		c0,1.406-0.979,2.001-1.937,2.001h-4.131l-0.571-2.597c-1.213,1.173-3.169,2.173-3.725,2.446L116.055,55.047z M136.758,38.834
		v3.063h-6.043v0.511h5.17v4.642h-18.598v-4.642h5.148v-0.511h-6.02v-3.063H136.758z M135.225,47.558v2.446h-17.254v-2.446H135.225z
		 M121.117,44.305v0.723h1.318v-0.723H121.117z M123.504,54.156c-0.238,0.362-0.45,0.657-0.768,1.04h1.252c0.26,0,0.6,0,0.6-0.617
		v-1.106h-2.552L123.504,54.156z M125.906,41.897v0.684h1.317v-0.684H125.906z M125.906,44.305v0.723h1.317v-0.723H125.906z
		 M130.715,44.305v0.723h1.38v-0.723H130.715z"/>
	<rect x="44.414" y="31.996" width="93.008" height="3.585"/>
	<g>
		<path d="M48.935,70.639v3.796h-3.626V62.327h4.329c1.93,0,4.104,0.992,4.104,4.122c0,2.994-2.051,4.19-4.002,4.19H48.935z
			 M48.935,65.441v2.221h0.445c0.481,0,0.96-0.444,0.96-1.142c0-0.771-0.479-1.079-0.96-1.079H48.935z"/>
		<path d="M59.417,61.984c3.112,0,5.061,2.483,5.061,6.362c0,3.883-1.948,6.432-5.061,6.432s-5.063-2.549-5.063-6.432
			C54.354,64.467,56.305,61.984,59.417,61.984z M59.417,71.083c0.888,0,1.3-1.162,1.3-2.737c0-1.573-0.412-2.701-1.3-2.701
			c-0.889,0-1.299,1.128-1.299,2.701C58.118,69.921,58.528,71.083,59.417,71.083z"/>
		<path d="M69.318,70.639v3.796h-3.627V62.327h4.328c1.932,0,4.104,0.992,4.104,4.122c0,2.994-2.051,4.19-4.001,4.19H69.318z
			 M69.318,65.441v2.221h0.442c0.482,0,0.958-0.444,0.958-1.142c0-0.771-0.476-1.079-0.958-1.079H69.318z"/>
		<path d="M77.098,74.435l-2.874-12.108h4.239l1.096,7.645h0.051l1.062-7.645h4.051l-2.938,12.108H77.098z"/>
		<path d="M89.905,61.984c3.11,0,5.06,2.483,5.06,6.362c0,3.883-1.949,6.432-5.06,6.432c-3.114,0-5.063-2.549-5.063-6.432
			C84.842,64.467,86.791,61.984,89.905,61.984z M89.905,71.083c0.886,0,1.299-1.162,1.299-2.737c0-1.573-0.413-2.701-1.299-2.701
			c-0.891,0-1.3,1.128-1.3,2.701C88.605,69.921,89.015,71.083,89.905,71.083z"/>
		<path d="M100.575,74.435h-3.659v-8.961h-2.137v-3.147h7.933v3.147h-2.137V74.435z"/>
		<path d="M103.511,62.327h6.467v3.268h-2.926v1.211h2.652v3.027h-2.652v1.284h3.149v3.318h-6.69V62.327z"/>
		<path d="M111.241,72.656c0-1.06,0.755-1.966,1.851-1.966c1.092,0,1.844,0.906,1.844,1.966c0,1.096-0.752,1.95-1.844,1.95
			C111.996,74.606,111.241,73.752,111.241,72.656z"/>
		<path d="M121.794,69.798h-1.643v4.637h-3.694V62.327h3.694v4.14h1.643v-4.14h3.693v12.108h-3.693V69.798z"/>
		<path d="M130.958,69.167h-0.067v5.269h-3.715V62.327h3.715v4.77h0.086l1.674-4.77h4.104l-2.478,5.489l2.617,6.619h-4.243
			L130.958,69.167z"/>
	</g>
</g>
</svg>
