<?xml version="1.0" encoding="utf-8"?>
<!-- Generator: Adobe Illustrator 15.0.0, SVG Export Plug-In . SVG Version: 6.00 Build 0)  -->
<!DOCTYPE svg PUBLIC "-//W3C//DTD SVG 1.1//EN" "http://www.w3.org/Graphics/SVG/1.1/DTD/svg11.dtd">
<svg version="1.1" id="Layer_1" xmlns="http://www.w3.org/2000/svg" xmlns:xlink="http://www.w3.org/1999/xlink" x="0px" y="0px"
	 width="699.717px" height="143.502px" viewBox="0 0 699.717 143.502" enable-background="new 0 0 699.717 143.502"
	 xml:space="preserve">
<g>
	<g>
		<path fill="#231F20" d="M23.517,130.111c4.214-1.222,8.917-4.703,12.766-8.612c3.97-5.437,6.23-12.033,6.169-20.706l-0.061-15.82
			l12.338,1.221l-0.062,10.568c-0.061,9.406-1.588,20.095-4.52,25.226c3.909,4.032,6.963,7.818,9.101,11.361l-9.956,9.468
			c-2.076-3.543-4.275-6.963-7.146-10.14c-4.886,4.275-10.139,7.635-15.759,10.14l-6.779-9.65
			c-5.009,3.908-9.102,7.084-12.217,9.162l-6.108-12.156c0.917-0.366,2.749-1.526,4.337-2.626V85.217h11.85v34.205
			c3.482-3.176,6.597-6.291,9.346-10.2l7.818,9.468C31.884,122.049,27.914,126.568,23.517,130.111z M19.18,96.211l8.918-7.635
			c4.214,3.909,9.039,9.162,12.216,13.805l-9.224,8.49C27.73,106.168,23.333,100.182,19.18,96.211z"/>
		<path fill="#2AC2F1" d="M120.58,127.912h-8.124c2.26,1.649,5.253,3.299,9.04,4.947l-6.23,9.407
			c-5.68-2.871-10.628-6.353-14.842-10.445l3.909-3.909h-5.07v5.681c0,5.313-2.688,8.49-7.574,8.49h-6.779l-3.055-6.78
			c-3.604,3.299-7.024,5.559-10.262,6.78l-6.779-8.001c3.298-1.527,6.229-3.604,8.795-6.17h-8.49v-9.039h55.462V127.912z
			 M120.336,94.807h-16.309v1.404h13.193v13.805H68.905V96.211h12.461v-1.404H66.096v-8.918h54.24V94.807z M115.389,117.834h-45.2
			v-6.353h45.2V117.834z M78.801,104.335h2.565v-1.222h-2.565V104.335z M87.841,127.912h-5.375l3.359,3.055
			c-0.184,0.672-0.733,1.344-1.649,2.076h3.665V127.912z M91.688,96.211h2.688v-1.404h-2.688V96.211z M91.688,104.335h2.688v-1.222
			h-2.688V104.335z M104.027,104.335h2.748v-1.222h-2.748V104.335z"/>
		<path fill="#231F20" d="M168.596,94.746c0.367,0.365,0.855,0.672,1.466,0.854c1.771-1.649,3.359-3.604,4.765-5.803l7.88,4.214
			c-1.039,1.895-2.199,3.543-3.482,4.948c1.589,0.489,3.177,0.733,4.765,0.733l-3.359,9.895l2.688,1.222
			c-0.061,3.909-1.344,6.353-3.787,7.329l-0.061,7.758c-1.222,2.383-2.688,4.459-4.276,6.17c2.627,0.61,5.62,1.037,8.979,1.282
			l-3.849,9.712c-5.191-0.611-10.14-1.832-14.781-3.665c-4.031,1.649-8.002,2.81-11.85,3.543l-2.565-3.543
			c-1.894,2.138-5.253,3.726-10.018,3.665l-8.673-0.122l-2.933-9.59l9.59-0.062c1.222-0.244,1.833-1.038,1.833-2.443h-13.011
			l2.443-17.163h11.85v-1.038h-9.162l-2.993,0.672l-2.688-11.117c1.894,0,3.849-0.488,5.864-1.404l-5.559-4.826l5.253-4.459v-5.986
			h24.982c1.038,1.406,2.26,2.75,3.664,4.032c1.771-0.794,3.299-2.138,4.459-4.032l7.514,3.727
			C172.261,91.264,170.611,93.096,168.596,94.746z M140.682,121.133v1.038h11.667v10.812c1.894,0,3.298-0.123,4.215-0.367
			c-1.467-2.016-2.505-3.664-3.055-4.947l3.237-1.955h-2.565v-6.535l-1.1-0.855v2.811H140.682z M145.324,94.439h-3.909l1.894,1.223
			C144.164,95.356,144.836,94.929,145.324,94.439z M153.265,112.337c0.794-1.771,1.16-4.704,1.1-8.856h6.902
			c-2.138-1.283-4.093-2.749-5.925-4.398c-1.589,1.771-3.359,3.237-5.376,4.398h3.299V112.337z M163.954,112.581h-1.527
			c-0.122,1.526-0.366,2.749-0.733,3.665h2.261V112.581z M166.275,127.912c0.916-0.672,1.588-1.404,2.076-2.26h-5.009
			C163.954,126.63,164.931,127.363,166.275,127.912z M174.398,108.855c-0.854-0.244-1.526-0.428-2.076-0.551v4.276h0.794
			C173.971,112.459,174.398,111.237,174.398,108.855z"/>
		<path fill="#231F20" d="M218.322,108.428c1.344,0.244,2.626,0.122,3.848-0.367c-0.916-0.488-1.832-1.282-2.688-2.443
			c0.794-0.365,1.466-0.854,2.016-1.465h-1.526v-4.398c-0.672-0.611-1.283-1.222-1.894-1.771v1.039h-26.51v-3.849h8.368v-1.282
			h-8.795v-5.986h8.795V85.4h11.239v2.504h8.307v5.986h-8.307v1.282l7.085-0.062c1.283-0.793,2.138-2.076,2.627-3.908v-5.437h17.836
			v7.208h1.404l0.306-0.367V87.11l6.169,2.016v6.047c-0.55,1.161-1.222,1.954-2.077,2.443l0.062,6.169
			c-1.16,1.588-2.443,2.749-3.848,3.604l6.047,0.306l-2.993,7.269h2.993v6.902h-8.246v9.773l8.246-0.551l-0.184,7.453l-7.879,0.488
			v3.787h-11.545v-3.055l-36.037,1.771v-8.002l7.207-0.183v-11.3l-2.504,3.726l-5.925-8.673c1.344-2.749,2.016-5.742,2.016-9.041
			v-7.939h26.447L218.322,108.428z M215.695,113.191h-14.659v0.367l-0.61,1.404h16.98L215.695,113.191z M203.296,105.19h-2.443
			v1.649h2.443V105.19z M212.031,105.19h-2.505v1.649h2.505V105.19z M226.873,121.865h-17.347v1.466h17.347V121.865z
			 M226.873,126.141h-17.285v1.405h17.285V126.141z M227.179,131.455h-17.591v1.588l17.591-0.55V131.455z M224.186,114.963h13.133
			l-6.353-2.076C228.767,113.497,226.507,114.169,224.186,114.963z M230.355,95.173h-2.016c-0.245,0.917-0.611,1.71-1.1,2.443h4.275
			L230.355,95.173z M230.844,105.801c1.16-0.488,2.016-1.038,2.627-1.648h-5.314C228.889,104.763,229.806,105.252,230.844,105.801z"
			/>
	</g>
	<g>
		<path fill="#231F20" d="M261.034,87.447c0.319,17.141,1.84,39.88,1.84,39.88h9.21c0,0,1.762-22.583,1.922-39.88H261.034z"/>
		<rect x="261.593" y="131.65" fill="#231F20" width="11.854" height="11.852"/>
	</g>
	<g>
		<g>
			<rect x="686.485" y="48.1" fill="#231F20" width="12.688" height="11.986"/>
			<path fill="#231F20" d="M685.941,3.425c0.311,17.278,1.79,40.316,1.79,40.316h10.04c0,0,1.79-22.805,1.945-40.316H685.941z"/>
			<path fill="#231F20" d="M678.937,37.282c-7.862-4.749-19.769-13.387-26.774-21.092v-1.635h23.35V3.347h-58.062v11.208h21.481
				c-2.646,6.149-13.231,16.033-24.903,23.116l7.547,11.286c7.239-4.203,16.111-12.376,18.757-17.045v28.175h11.831V31.911
				c6.228,7.238,10.819,11.987,18.058,17.045L678.937,37.282z"/>
			<rect x="551.684" y="21.793" fill="#231F20" width="21.325" height="7.706"/>
			<rect x="551.684" y="2.958" fill="#231F20" width="21.325" height="7.86"/>
			<rect x="551.684" y="30.9" fill="#231F20" width="21.325" height="7.706"/>
			<path fill="#231F20" d="M603.362,41.718c0.077,1.4-0.078,4.436-0.623,5.759c-0.544,1.323-1.945,1.712-1.945-0.078v-9.262h6.771
				V13.543h-4.981c1.402-2.258,3.114-5.215,4.671-9.341l-12.062-2.646c-0.468,2.49-2.414,8.639-4.049,11.986h-1.012
				c-0.779-3.347-2.336-9.262-3.813-11.909l-11.285,2.647c2.023,3.735,3.19,6.927,3.736,9.262h-3.813V12.22h-24.674v8.094h24.594
				v17.824h3.814c0.079,4.903-1.401,7.783-5.681,11.051v-9.107h-21.325v19.849h21.325v-5.683l5.76,6.227
				c6.693-5.526,10.117-10.584,10.429-22.337h1.401l-0.156,13.231c-0.077,5.215,2.802,8.249,6.382,8.249h5.837
				c5.682,0,9.341-6.537,10.118-14.477L603.362,41.718z M564.447,50.824h-4.28v-3.191h4.28V50.824z M595.891,27.942h-9.651v-4.047
				h9.651V27.942z"/>
		</g>
		<path fill="#231F20" d="M104.994,42.107c0.234-0.935,0.467-2.724,0.467-4.825c0.545,3.113,0.701,5.136,1.168,6.849
			c-3.269,3.58-10.273,7.316-13.076,8.25l5.449,8.718c2.957-1.09,8.328-4.36,11.285-7.239c2.724,3.58,4.981,6.46,8.561,6.46
			c3.27,0,5.527-2.958,6.928-4.98c1.868-2.725,3.503-6.149,4.826-10.585l-8.562-4.904c-1.09,3.114-3.657,7.004-4.047,7.004
			c-0.389,0-0.623,0-0.701-0.7c4.204-6.382,7.783-16.422,9.107-22.649l-9.262-3.036c-0.779,5.293-1.868,8.951-2.569,10.819
			c-0.39-3.191-0.468-7.161-0.622-11.441h12.297V9.885h-3.036l3.581-1.4c-1.09-2.102-2.257-4.359-3.736-6.305l-8.094,3.269
			c0.623,1.012,1.868,2.88,2.801,4.437h-3.812V3.27h-10.43v6.616H86.158v18.602c0,6.693,0,10.272-0.699,14.554l-0.39-4.669
			l-1.556,0.544V26.697h1.634V16.033h-1.634V4.826H72.771v11.208h-4.124v10.664h4.124v14.865c-2.178,0.467-4.279,1.013-5.369,1.167
			c0,0,0.699,5.371,1.79,11.675c6.692-1.712,11.44-3.814,14.087-5.059c-0.856,1.557-3.658,4.358-4.748,5.37l7.705,5.604
			c3.736-3.891,8.251-8.172,9.107-15.255l1.322,3.97C100.559,48.878,104.139,45.61,104.994,42.107L104.994,42.107z M97.989,31.444
			c0,1.323-0.077,3.892-0.233,4.749c-0.232,1.011-0.389,1.323-1.635,1.323c0,0,0.079-4.515,0.079-6.072H97.989z M96.2,21.482v-1.635
			h7.86c0,0.545,0.078,0.935,0.078,1.635H96.2z M266.105,3.347c0.233,16.812,1.789,39.149,1.789,39.149h9.73
			c0,0,1.789-22.104,1.944-39.149H266.105z M278.947,46.699h-12.375v11.675h12.375V46.699z M4.592,30.9
			c1.868-0.623,4.67-1.557,6.928-2.647l-0.157,4.593h14.166v2.101H8.406v11.597h17.122v2.024H3.891v11.596h55.729V48.567h-21.17
			v-2.024H55.65V34.946H38.449v-2.101h13.932l0.077-4.67c2.491,1.245,3.425,1.557,5.06,2.179l6.148-10.896
			c-6.693-2.024-18.369-7.861-25.217-16.033H8.64v9.884l7.394,0.078C13.076,15.333,7.861,17.667,0,19.458L4.592,30.9z
			 M23.816,21.715c3.658-2.257,6.382-4.125,8.172-6.148c1.946,1.946,3.97,3.58,7.939,6.148H23.816z"/>
		<path fill="#231F20" d="M330.549,7.706c0.545-0.623,1.635-3.736,2.023-5.448L320.275,0c-0.233,2.646-1.634,6.772-2.023,7.706
			H300.04v50.668h12.142V18.913h28.02v26.774c0,1.012,0.154,1.556-0.857,1.556h-0.777V20.548h-24.829v27.396h18.758l2.724,10.43
			h9.885c7.16,0,7.16-7.083,7.16-8.795V7.706H330.549z M328.837,38.216h-5.37v-7.705h5.37V38.216z"/>
		<g>
			<path fill="#00BFF2" d="M147.205,35.668c-4.423-2.181-8.847-4.548-13.27-7.103l6.354-10.653
				c4.423,2.243,8.536,4.672,12.959,7.102l-0.935,1.62h9.719V21.65h-8.909l-0.062-7.725c-1.246,2.056-2.43,4.174-3.551,6.354
				c-4.61-2.617-9.221-5.108-13.831-7.414l6.791-11.277c4.672,2.305,9.221,4.61,13.644,6.916l-0.686,1.433h6.292V1.839h12.398v8.099
				h14.454v16.51h3.489v10.529l-15.451-0.062c2.43,4.236,7.788,7.539,16.136,11.152l-6.853,11.775
				c-6.043-2.554-11.588-6.791-16.697-12.709c-4.112,5.545-9.345,9.844-15.638,12.896l-5.358-6.729
				c-0.561,2.367-1.371,4.672-2.43,6.916l-11.401-7.103c2.492-5.545,4.423-11.899,5.794-19.126l11.09,5.295
				c-0.312,2.43-0.873,5.358-1.496,7.913c4.61-2.305,8.286-5.296,11.028-10.218h-10.841v-5.981
				C149.199,32.366,148.264,34.298,147.205,35.668z M177.359,21.713h-3.364v4.61h3.364V21.713z"/>
			<path fill="#00BFF2" d="M232.116,2.025v5.732h21.868v11.588h-21.743v1.433h17.88v11.588h-15.388l3.676,7.601l8.847-3.987
				c3.053,5.42,5.856,11.152,8.473,17.195l-10.716,5.233l-2.555-6.292c-1.744,4.922-3.925,7.538-6.479,7.912l-19.75-0.062
				c-2.305,0-3.613-1.246-3.987-3.8l0.062-12.46c-1.495,5.296-3.427,10.155-5.856,14.517l-9.657-6.542l0.935-2.18
				c1.807-4.237,3.177-8.909,4.174-14.08l10.342,3.613v-5.233h9.345l2.617-1.433h-22.491V20.778h17.88v-1.433h-21.058V7.757h21.058
				V2.025H232.116z M231.68,46.322l0.436-2.741l-4.922,2.368l-3.427-7.476v8.411c0,1.308,0.499,1.931,1.745,1.931h3.738
				C230.496,48.627,231.431,47.817,231.68,46.322z M237.412,41.712l-4.299,1.62l6.916,3.053
				C239.281,44.702,238.409,43.145,237.412,41.712z"/>
		</g>
		<g>
			<path fill="#00BFF2" d="M508.308,48.858c-4.847-1.001-7.385-3.001-7.462-4.924V31.011h-14.54v10.231h4.077v6.232
				c-1.461,1.153-3.846,2.154-6.077,2.922l6.231,10.079c2.691-1.077,6.309-2.539,8.693-4.232c3.538,2.154,9.616,3.155,16.387,3.616
				c8.846,0.616,17,0.231,26.385-0.308l1.387-10.693C539.387,49.089,522.694,51.704,508.308,48.858L508.308,48.858z"/>
			<path fill="#00BFF2" d="M534.848,34.241h7.002v-6.923h-7.002v-1.616c1.846,0,3.462-0.231,4.77-0.77
				c1.541-0.615,2.848-3.077,3.617-5.539l-6.232-1.539h4.463V3.162h-19.079v16.155l-5.769-1.307h4.307V3.162h-19.156l-0.152,20.233
				c0,1.77,1.153,2.461,3.691,2.539H509v1.384h-6.692v6.923H509v1.385h-6.692v6.616h40.388v-6.616h-7.848V34.241z M512,19.779
				c-0.461,0-1.539,0.153-1.539-0.77V18.01h3.077C513.538,19.702,513.077,19.779,512,19.779z M513.538,11.548h-3.077v-1.154h3.077
				V11.548z M524.002,35.626h-4.692v-1.385h4.692V35.626z M524.002,27.318h-4.692v-2c1.614-0.231,2.921-1.923,3.153-3.616
				c0,0,0,1.924,0,2.616s0.846,0.922,1.539,0.922V27.318z M531.926,19.702c-0.539,0-1.309,0-1.309-1.001v-0.846h3.001
				C533.618,19.317,533.463,19.702,531.926,19.702z M533.772,11.47h-3.155v-1.384h3.155V11.47z"/>
			<path fill="#00BFF2" d="M429.224,36.319V60.09h44.851V36.319H429.224z M462.842,51.782h-21.617v-1.386h21.617V51.782z
				 M462.842,44.705h-21.617v-1.462h21.617V44.705z"/>
			<path fill="#00BFF2" d="M474.69,24.087l2.307-4.385l-7.231-1.847h8.77V7.624h-11.309l2.154-3.923l-12.77-1.462l-1.386,5.386
				h-6.923l-1.463-5.386l-12.924,1.923l1.77,3.617l-11.848-0.154v10.231h9.232l-6.539,2.231l1.693,3.923h-5.309v10.924h57.158V24.01
				L474.69,24.087z M440.764,24.01h-1.385l-2-6.155h3.385V24.01z M452.303,24.01h-1.385v-6.155h1.385V24.01z M463.996,24.01h-1.23
				v-6.155h3.076L463.996,24.01z"/>
			<polygon fill="#00BFF2" points="416.146,24.779 416.146,3.239 396.221,3.239 396.221,13.701 404.914,13.701 404.914,15.163 
				396.221,15.163 396.221,24.779 			"/>
			<path fill="#00BFF2" d="M412.529,45.55c1.924-2.923,4.617-8.077,4.617-19.31h-20.926c0,6.154-0.076,9.309,0,12.924
				c0.078,2.616,1.848,6.385,3.386,7.616c-0.923,0.924-3.847,3.231-4.847,3.462v-9.386h-8.924v-1.462h8.924v-9.923h-8.924v-1.385
				h8.924V3.162h-19.156v2.692l-8.078-3.538c-1.769,7.846-6.23,17.001-10.539,23.386l5.693,10.616l1.692-2.154v26.001h9.77V17.163
				l1.462-4.23v47.234h10.232v-8h6l6.77,7.924c2.693-1.231,5.078-3.538,7.309-5.385c2.309,1.922,5,4.385,7.078,5.385
				c3.385-4.847,6.846-10.54,6.846-10.54C416.377,48.397,413.53,46.858,412.529,45.55z M385.758,17.317v-2.693h1.463v2.693H385.758z
				 M404.991,39.165c-0.692-1.077-1.231-2.153-1.462-3.693h3.001C406.299,36.858,405.529,38.473,404.991,39.165z"/>
			<path fill="#00BFF2" d="M503.154,23.471c0-0.076-7.54-4.923-12.926-7.077l-6.23,10.539c5.23,2.539,8.385,4.309,13.154,7.155
				C498.154,32.704,499.076,30.703,503.154,23.471L503.154,23.471z"/>
			<path fill="#00BFF2" d="M504.692,8.855c0-0.077-7.54-4.924-12.925-7.079l-6.23,10.54c5.231,2.539,8.385,4.309,13.154,7.154
				C499.691,18.086,500.615,16.086,504.692,8.855L504.692,8.855z"/>
			<path fill="#00BFF2" d="M515.154,40.011c-4.463,2.232-11.463,4.386-13.002,4.77l7.31,7.079c5.847-2.154,11.924-5.77,11.924-5.77
				L515.154,40.011z"/>
			<path fill="#00BFF2" d="M542.156,44.935c0-0.076-8.693-2.539-13.693-5.154l-6.232,6.309c3.31,2.462,8.541,4.77,11.849,6.231
				C536.926,50.089,540.464,47.013,542.156,44.935L542.156,44.935z"/>
		</g>
	</g>
</g>
</svg>
