<?xml version="1.0" encoding="utf-8"?>
<!-- Generator: Adobe Illustrator 16.0.0, SVG Export Plug-In . SVG Version: 6.00 Build 0)  -->
<!DOCTYPE svg PUBLIC "-//W3C//DTD SVG 1.1//EN" "http://www.w3.org/Graphics/SVG/1.1/DTD/svg11.dtd">
<svg version="1.1" id="Layer_1" xmlns="http://www.w3.org/2000/svg" xmlns:xlink="http://www.w3.org/1999/xlink" x="0px" y="0px"
	 width="51px" height="26px" viewBox="-8.783 -2.319 51 26" enable-background="new -8.783 -2.319 51 26" xml:space="preserve">
<g>
	<path fill="#FFFFFF" d="M12.721,5.306c-1.399,2.01-3.025,3.704-4.854,5.104h5.85v10.953H9.47v-0.587H2.289v0.587h-4.494v-5.736
		c-0.971,0.452-2.01,0.858-3.139,1.22L-7.4,12.51c2.371-0.609,4.63-1.287,6.753-2.032c-0.654-0.655-1.287-1.333-1.853-2.032
		C-3.312,9.01-4.17,9.439-5.097,9.711l-2.077-3.997C-4.216,4.268-1.618,2.371,0.617,0l5.262,0.452
		C5.743,0.745,5.495,1.039,5.156,1.31h7.564L12.721,5.306L12.721,5.306z M3.644,7.993C4.66,7.339,5.609,6.503,6.511,5.51H1.657
		L1.296,5.893C2.086,6.594,2.877,7.293,3.644,7.993z M2.265,14.474v2.033h7.159v-2.033H2.265z"/>
	<path fill="#FFFFFF" d="M37.429,17.659v2.168c-0.226,0.835-0.699,1.332-1.423,1.514h-3.184l-0.994-3.003h1.626
		c0.452,0.045,0.655-0.182,0.565-0.678h-4.855v3.682h-3.388V17.66h-1.266v-2.235l-0.52-0.521v6.437h-3.388v-3.5l-1.196,1.513
		l-1.242-3.727l-0.361-0.902c0.835-1.311,1.626-2.598,2.395-3.884h-2.102V6.662h2.508V5.668c-0.588,0.046-1.151,0.113-1.672,0.203
		l-0.881-4.246c2.644-0.181,5.06-0.632,7.249-1.377l1.197,2.598c0.181-0.43,0.294-0.949,0.384-1.536
		c3.004-0.182,5.759-0.564,8.288-1.129L38.084,3.5c-0.339,0.182-0.678,0.316-1.039,0.406l1.987,3.275l-0.136,0.066l-1.469,0.994
		v6.278h1.242v3.139H37.429z M25.462,6.661c0.249-0.745,0.476-1.468,0.7-2.189c-0.7,0.181-1.423,0.36-2.168,0.542v1.647H25.462z
		 M25.778,11.697V10.84h-0.836L25.778,11.697z M25.733,14.52v-0.926l-0.7,0.926H25.733z M27.359,8.241l-1.378-1.197v1.197H27.359z
		 M33.66,4.696l0.112,0.521l2.234-1.175c-2.122,0.249-4.245,0.497-6.368,0.724c-0.157,1.219-0.45,2.371-0.835,3.478h1.129
		l-0.021-3.162L33.66,4.696z M30.114,11.358v-0.52h-0.948v0.52H30.114z M30.114,14.52V14h-0.948v0.521H30.114z M34.066,11.358v-0.52
		h-0.994v0.52H34.066z M34.066,14.52V14h-0.994v0.521H34.066z M34.021,7.97l-0.61,0.271h1.874L33.817,5.87L34.021,7.97z"/>
</g>
</svg>
