<?xml version="1.0" encoding="utf-8"?>
<!-- Generator: Adobe Illustrator 15.0.0, SVG Export Plug-In . SVG Version: 6.00 Build 0)  -->
<!DOCTYPE svg PUBLIC "-//W3C//DTD SVG 1.1//EN" "http://www.w3.org/Graphics/SVG/1.1/DTD/svg11.dtd">
<svg version="1.1" id="Layer_1" xmlns="http://www.w3.org/2000/svg" xmlns:xlink="http://www.w3.org/1999/xlink" x="0px" y="0px"
	 width="149.436px" height="58.918px" viewBox="0 0 149.436 58.918" enable-background="new 0 0 149.436 58.918"
	 xml:space="preserve">
<g>
	<rect x="136.204" y="46.543" fill="#FFFFFF" width="12.688" height="11.986"/>
	<path fill="#FFFFFF" d="M135.66,1.868c0.311,17.278,1.79,40.316,1.79,40.316h10.04c0,0,1.79-22.805,1.945-40.316H135.66z"/>
	<path fill="#FFFFFF" d="M128.655,35.725c-7.862-4.749-19.769-13.387-26.774-21.092v-1.635h23.35V1.79H67.168v11.208h21.481
		c-2.646,6.149-13.231,16.033-24.903,23.116l7.547,11.286c7.239-4.203,16.111-12.376,18.757-17.045v28.175h11.831V30.354
		c6.228,7.238,10.819,11.987,18.058,17.045L128.655,35.725z"/>
	<rect x="1.402" y="20.236" fill="#FFFFFF" width="21.325" height="7.706"/>
	<rect x="1.402" y="1.401" fill="#FFFFFF" width="21.325" height="7.86"/>
	<rect x="1.402" y="29.343" fill="#FFFFFF" width="21.325" height="7.706"/>
	<path fill="#FFFFFF" d="M53.081,40.161c0.077,1.4-0.078,4.436-0.623,5.759c-0.544,1.323-1.945,1.712-1.945-0.078v-9.262h6.771
		V11.986h-4.981c1.402-2.258,3.114-5.215,4.671-9.341L44.91,0c-0.468,2.49-2.414,8.639-4.049,11.986H39.85
		c-0.779-3.347-2.336-9.262-3.813-11.909L24.751,2.724c2.023,3.735,3.19,6.927,3.736,9.262h-3.813v-1.323H0v8.094h24.594v17.824
		h3.814c0.079,4.903-1.401,7.783-5.681,11.051v-9.107H1.402v19.849h21.325v-5.683l5.76,6.227
		c6.693-5.526,10.117-10.584,10.429-22.337h1.401l-0.156,13.231c-0.077,5.215,2.802,8.249,6.382,8.249h5.837
		c5.682,0,9.341-6.537,10.118-14.477L53.081,40.161z M14.166,49.267h-4.28v-3.191h4.28V49.267z M45.609,26.385h-9.651v-4.047h9.651
		V26.385z"/>
</g>
</svg>
