<?xml version="1.0" encoding="utf-8"?>
<!-- Generator: Adobe Illustrator 15.0.0, SVG Export Plug-In . SVG Version: 6.00 Build 0)  -->
<!DOCTYPE svg PUBLIC "-//W3C//DTD SVG 1.1//EN" "http://www.w3.org/Graphics/SVG/1.1/DTD/svg11.dtd">
<svg version="1.1" id="Layer_1" xmlns="http://www.w3.org/2000/svg" xmlns:xlink="http://www.w3.org/1999/xlink" x="0px" y="0px"
	 width="130.629px" height="58.776px" viewBox="0 0 130.629 58.776" enable-background="new 0 0 130.629 58.776"
	 xml:space="preserve">
<g>
	<path fill="#FFFFFF" d="M122.066,37.527c-1.09,3.114-3.657,7.005-4.047,7.005c-0.389,0-0.623,0-0.701-0.7
		c4.204-6.382,7.783-16.422,9.107-22.649l-9.262-3.036c-0.779,5.293-1.868,9.254-2.569,11.123c-0.39-3.19-0.468-7.137-0.622-11.137
		h12.582v-10h-3.321l3.581-1.685c-1.09-2.103-2.257-4.501-3.736-6.448l-8.094,3.482c0.623,1.012,1.868,3.65,2.801,4.65h-3.23v-6h-11
		v6h-17v18.032c0,6.693-0.185,10.272-0.884,14.554l-0.476-4.669l-1.641,0.544V25.133h2v-11h-2v-11h-10v11h-5v11h5v14.106
		c-3,0.467-4.657,1.014-5.747,1.168c0,0,0.511,5.371,1.601,11.676c6.693-1.713,11.347-3.814,13.993-5.06
		c-0.856,1.558-3.706,4.358-4.796,5.37l7.683,5.604c3.736-3.891,8.238-8.172,9.095-15.255l1.316,3.97
		c3.893-0.156,7.47-3.424,8.325-6.927c0.234-0.935,0.466-2.724,0.466-4.825c0.545,3.113,0.699,5.137,1.166,6.849
		c-3.268,3.58-10.273,7.315-13.076,8.249l5.449,8.719c2.957-1.09,8.328-4.36,11.285-7.24c2.724,3.58,4.981,6.461,8.561,6.461
		c3.27,0,5.527-2.957,6.928-4.98c1.868-2.725,3.503-6.149,4.826-10.585L122.066,37.527z M97.783,34.375
		c-0.232,1.012-0.389,1.577-1.635,1.577c0,0,0.079-4.819,0.079-5.819h1.789C98.017,31.133,97.939,33.519,97.783,34.375z
		 M96.555,20.133v-2h7.533c0,1,0.078,1,0.078,2H96.555z"/>
	<path fill="#FFFFFF" d="M38.555,45.133h17v-12h-17v-2h13.854l0.077-4.975c2.491,1.245,3.425,1.404,5.06,2.027l6.148-10.458
		C57,15.703,45.324,10.133,38.477,2.133H8.555v8.854l7.45,0.078C13.048,13.011,7.861,15.345,0,17.136l4.605,11.441
		c1.868-0.623,4.677-1.252,6.935-2.342l-0.15,4.897h14.165v2h-17v12h17v2h-21v11h55v-11h-21V45.133z M23.844,20.133
		c3.658-2,6.382-4.125,8.172-6.148c1.946,1.946,3.97,3.148,7.939,6.148H23.844z"/>
</g>
</svg>
