<?xml version="1.0" encoding="utf-8"?>
<!-- Generator: Adobe Illustrator 15.0.0, SVG Export Plug-In . SVG Version: 6.00 Build 0)  -->
<!DOCTYPE svg PUBLIC "-//W3C//DTD SVG 1.1//EN" "http://www.w3.org/Graphics/SVG/1.1/DTD/svg11.dtd">
<svg version="1.1" id="Layer_1" xmlns="http://www.w3.org/2000/svg" xmlns:xlink="http://www.w3.org/1999/xlink" x="0px" y="0px"
	 width="86.158px" height="58.374px" viewBox="0 0 86.158 58.374" enable-background="new 0 0 86.158 58.374" xml:space="preserve">
<g>
	<path fill="#FFFFFF" d="M0,3.347c0.233,16.812,1.789,39.149,1.789,39.149h9.73c0,0,1.789-22.104,1.944-39.149H0z M12.842,46.699
		H0.467v11.675h12.375V46.699z"/>
	<path fill="#FFFFFF" d="M64.443,7.706c0.545-0.623,1.635-3.736,2.023-5.448L54.17,0c-0.233,2.646-1.634,6.772-2.023,7.706H33.935
		v50.668h12.142V18.913h28.02v26.774c0,1.012,0.154,1.556-0.857,1.556h-0.777V20.548H47.632v27.396H66.39l2.724,10.43h9.885
		c7.16,0,7.16-7.083,7.16-8.795V7.706H64.443z M62.731,38.216h-5.37v-7.705h5.37V38.216z"/>
</g>
</svg>
